<?xml version="1.0" encoding="iso-8859-1"?>
<!-- Generator: Adobe Illustrator 16.0.0, SVG Export Plug-In . SVG Version: 6.00 Build 0)  -->
<!DOCTYPE svg PUBLIC "-//W3C//DTD SVG 1.1//EN" "http://www.w3.org/Graphics/SVG/1.1/DTD/svg11.dtd">
<svg version="1.1" id="&#x5716;&#x5C64;_1" xmlns="http://www.w3.org/2000/svg" xmlns:xlink="http://www.w3.org/1999/xlink" x="0px"
	 y="0px" width="70.449px" height="12px" viewBox="0 0 70.449 12" style="enable-background:new 0 0 70.449 12;"
	 xml:space="preserve">
<g style="opacity:0.8;">
	<path style="fill:#316088;" d="M5.711,0.289l5.359,11.492H9.83L8.023,8H3.072l-1.791,3.781H0L5.43,0.289H5.711z M5.566,2.73
		L3.598,6.89h3.928L5.566,2.73z"/>
	<path style="fill:#316088;" d="M13.143,11.781V0h1.094v4.742c0.459-0.563,0.971-0.982,1.537-1.261
		c0.568-0.278,1.189-0.418,1.865-0.418c1.203,0,2.229,0.437,3.08,1.308c0.85,0.873,1.275,1.932,1.275,3.176
		c0,1.23-0.43,2.279-1.287,3.148C19.848,11.566,18.814,12,17.607,12c-0.691,0-1.318-0.148-1.881-0.445
		c-0.561-0.297-1.059-0.742-1.49-1.336v1.563H13.143z M17.518,10.945c0.607,0,1.17-0.148,1.684-0.449
		c0.516-0.299,0.924-0.719,1.229-1.262c0.303-0.541,0.455-1.113,0.455-1.719c0-0.604-0.152-1.18-0.459-1.727
		s-0.719-0.973-1.236-1.277s-1.068-0.457-1.656-0.457c-0.598,0-1.164,0.152-1.703,0.457c-0.537,0.305-0.951,0.715-1.238,1.23
		c-0.289,0.516-0.434,1.098-0.434,1.742c0,0.984,0.324,1.809,0.971,2.469C15.775,10.615,16.572,10.945,17.518,10.945z"/>
	<path style="fill:#316088;" d="M28.41,3.063c1.309,0,2.395,0.475,3.256,1.421c0.781,0.865,1.174,1.889,1.174,3.07
		c0,1.188-0.414,2.227-1.24,3.113C30.771,11.556,29.709,12,28.41,12c-1.305,0-2.371-0.443-3.197-1.332
		c-0.828-0.887-1.24-1.926-1.24-3.113c0-1.176,0.391-2.197,1.174-3.063C26.008,3.539,27.096,3.063,28.41,3.063z M28.406,4.132
		c-0.91,0-1.691,0.336-2.344,1.008c-0.654,0.672-0.98,1.484-0.98,2.438c0,0.615,0.148,1.188,0.447,1.719
		c0.297,0.531,0.699,0.941,1.207,1.23c0.506,0.289,1.063,0.434,1.67,0.434c0.605,0,1.162-0.145,1.67-0.434
		c0.506-0.289,0.908-0.699,1.207-1.23c0.297-0.531,0.447-1.104,0.447-1.719c0-0.953-0.328-1.766-0.984-2.438
		S29.311,4.132,28.406,4.132z"/>
	<path style="fill:#316088;" d="M35.123,3.281h1.094V7.25c0,0.969,0.051,1.637,0.156,2c0.156,0.521,0.455,0.934,0.896,1.234
		c0.439,0.303,0.965,0.453,1.576,0.453c0.609,0,1.127-0.146,1.553-0.441c0.426-0.293,0.719-0.68,0.881-1.16
		c0.109-0.328,0.164-1.023,0.164-2.086V3.281h1.117v4.171c0,1.172-0.137,2.055-0.41,2.648s-0.686,1.059-1.234,1.395
		C40.365,11.832,39.678,12,38.85,12s-1.52-0.168-2.074-0.504s-0.969-0.805-1.242-1.406s-0.41-1.506-0.41-2.715V3.281z"/>
	<path style="fill:#316088;" d="M46.342,0.125h1.094v3.156h1.734v0.945h-1.734v7.555h-1.094V4.226H44.85V3.281h1.492V0.125z"/>
	<path style="fill:#316088;" d="M55.9,3.281h1.094V7.25c0,0.969,0.053,1.637,0.156,2c0.156,0.521,0.455,0.934,0.896,1.234
		c0.441,0.303,0.967,0.453,1.576,0.453c0.611,0,1.129-0.146,1.553-0.441c0.426-0.293,0.719-0.68,0.881-1.16
		c0.109-0.328,0.164-1.023,0.164-2.086V3.281h1.117v4.171c0,1.172-0.137,2.055-0.41,2.648s-0.684,1.059-1.234,1.395
		C61.145,11.832,60.455,12,59.627,12s-1.52-0.168-2.074-0.504s-0.969-0.805-1.242-1.406S55.9,8.583,55.9,7.375V3.281z"/>
	<path style="fill:#316088;" d="M70.441,4.21l-0.703,0.727c-0.586-0.566-1.156-0.852-1.715-0.852c-0.355,0-0.66,0.117-0.914,0.352
		c-0.252,0.234-0.379,0.508-0.379,0.82c0,0.277,0.104,0.539,0.313,0.789c0.209,0.256,0.646,0.555,1.316,0.898
		c0.813,0.422,1.367,0.828,1.658,1.219c0.287,0.396,0.432,0.842,0.432,1.336c0,0.699-0.246,1.289-0.736,1.773S68.609,12,67.875,12
		c-0.49,0-0.959-0.107-1.404-0.32c-0.447-0.213-0.816-0.508-1.107-0.883l0.688-0.781c0.559,0.631,1.15,0.945,1.777,0.945
		c0.438,0,0.811-0.141,1.119-0.422s0.463-0.611,0.463-0.992c0-0.313-0.102-0.59-0.307-0.836c-0.203-0.238-0.662-0.541-1.377-0.906
		c-0.768-0.395-1.289-0.785-1.566-1.172c-0.275-0.385-0.414-0.824-0.414-1.32c0-0.645,0.221-1.182,0.66-1.609
		c0.441-0.427,0.998-0.641,1.672-0.641C68.859,3.063,69.648,3.445,70.441,4.21z"/>
</g>
</svg>
