<?xml version="1.0" encoding="iso-8859-1"?>
<!-- Generator: Adobe Illustrator 16.0.0, SVG Export Plug-In . SVG Version: 6.00 Build 0)  -->
<!DOCTYPE svg PUBLIC "-//W3C//DTD SVG 1.1//EN" "http://www.w3.org/Graphics/SVG/1.1/DTD/svg11.dtd">
<svg version="1.1" id="&#x5716;&#x5C64;_1" xmlns="http://www.w3.org/2000/svg" xmlns:xlink="http://www.w3.org/1999/xlink" x="0px"
	 y="0px" width="463.513px" height="434.995px" viewBox="0 0 463.513 434.995" style="enable-background:new 0 0 463.513 434.995;"
	 xml:space="preserve">
<g>
	<g style="opacity:0.5;">
		<ellipse style="fill:#6E8EC1;" cx="230.411" cy="428.277" rx="206.598" ry="6.719"/>
	</g>
	<g style="opacity:0.9;">
		<g>
			<g>
				<path style="fill:#FFFFFF;" d="M333.338,128.219c-0.354-0.501-0.709-1.003-1.06-1.505
					c-18.354-26.287-28.743-57.226-51.211-80.632c-46.36-48.29-132.501-57.121-192.593-33.526
					C34.495,33.75,8.114,84.996,8.108,142.324C8.087,351.26,161.793,426.572,314.334,385.916
					c61.177-16.305,149.896-71.813,132.736-147.412c-5.573-24.559-23.975-38.061-45.077-48.564
					C374.116,176.063,351.3,153.56,333.338,128.219z"/>
			</g>
			<g>
				<defs>
					<path id="SVGID_1_" d="M333.338,128.219c-0.354-0.501-0.709-1.003-1.06-1.505c-18.354-26.287-28.743-57.226-51.211-80.632
						c-46.36-48.29-132.501-57.121-192.593-33.526C34.495,33.75,8.114,84.996,8.108,142.324
						C8.087,351.26,161.793,426.572,314.334,385.916c61.177-16.305,149.896-71.813,132.736-147.412
						c-5.573-24.559-23.975-38.061-45.077-48.564C374.116,176.063,351.3,153.56,333.338,128.219z"/>
				</defs>
				<clipPath id="SVGID_2_">
					<use xlink:href="#SVGID_1_"  style="overflow:visible;"/>
				</clipPath>
				<g style="clip-path:url(#SVGID_2_);">
					<g>
						<rect x="22.26" y="296.686" style="fill:#9EB8E0;" width="434.993" height="116.289"/>
					</g>
					<g style="opacity:0.5;">
						<path style="fill:#9EB8E0;" d="M463.299,266.018c-0.139-4.066-8.733-22.625-32.922-11.629
							c-3.12-14.443-20.765-23.176-33.516-16.58c-2.457-8.164-14.355-24.66-30.001-27.082c-20.703-3.207-38.69,6.422-52.371,22.891
							c-11.05-10.719-30.364-10.271-40.94,0.951c-11.175-10.992-27.505-16.031-42.641-13.16
							c-15.134,2.873-28.699,13.582-35.421,27.973c-9.952-9.627-28.284-6.875-35.209,5.287c-8.267-10.541-26.026-10.557-34.31-0.031
							c-1.177-8.795-6.793-16.811-14.48-20.674c-7.686-3.861-17.219-3.457-24.576,1.047c-6.811-6.834-16.984-9.836-26.232-7.742
							c-9.249,2.094-17.301,9.221-20.762,18.383c-5.836-7.264-16.202-10.16-24.753-6.924c-20.899,7.914-14.113,39.898-14.113,57.959
							H463.16C463.8,296.686,463.393,268.742,463.299,266.018z"/>
					</g>
					<g>
						<g>
							<g>
								<polygon style="fill:#6E8EC1;" points="157.207,79.976 155.238,79.341 138.078,82.447 146.637,85.213 								"/>
							</g>
						</g>
						<g>
							<g>
								<path style="fill:#9EB8E0;" d="M209.461,79.081l-15.07,13.377c-7.109,3.02-23.332-2.224-25.569-2.946
									c-4.472-1.447-56.731-18.338-62.31-20.141c-2.451-0.793-12.332,1.395-16.459,2.277c-1.17,0.251-1.549,1.861-0.707,2.826
									c10.311,11.797,83.547,31.549,83.547,31.549c19.06,5.436,29.297-3.742,30.504-6.482l10.278-19.098L209.461,79.081z"/>
							</g>
						</g>
						<g>
							<g>
								<path style="fill:#6E8EC1;" d="M104.016,73.402c0.525,0.17,1.07-0.174,1.219-0.768c0.146-0.594-0.161-1.214-0.688-1.383
									l-4.709-1.523c-1.51,0.24-3.102,0.536-4.604,0.835L104.016,73.402z"/>
							</g>
						</g>
						<g>
							<g>
								<g>
									<g>
										<path style="fill:#6E8EC1;" d="M151.682,88.519c0.151-0.605,0.697-0.96,1.221-0.79c0.525,0.169,0.828,0.798,0.678,1.403
											s-0.697,0.96-1.221,0.79C151.836,89.753,151.533,89.125,151.682,88.519z"/>
									</g>
								</g>
							</g>
							<g>
								<g>
									<g>
										<path style="fill:#6E8EC1;" d="M170.777,94.692c0.15-0.606,0.696-0.961,1.22-0.792c0.524,0.17,0.827,0.799,0.678,1.404
											s-0.696,0.959-1.22,0.79C170.93,95.925,170.627,95.298,170.777,94.692z"/>
									</g>
								</g>
							</g>
							<g>
								<g>
									<g>
										<path style="fill:#6E8EC1;" d="M145.318,86.461c0.15-0.606,0.697-0.96,1.221-0.79s0.826,0.798,0.675,1.402
											c-0.148,0.606-0.695,0.961-1.219,0.793C145.471,87.696,145.168,87.067,145.318,86.461z"/>
									</g>
								</g>
							</g>
							<g>
								<g>
									<g>
										<path style="fill:#6E8EC1;" d="M158.049,90.576c0.149-0.605,0.695-0.959,1.22-0.791c0.522,0.171,0.825,0.799,0.677,1.404
											c-0.151,0.606-0.697,0.959-1.221,0.791C158.201,91.81,157.897,91.183,158.049,90.576z"/>
									</g>
								</g>
							</g>
							<g>
								<g>
									<g>
										<path style="fill:#6E8EC1;" d="M164.412,92.634c0.15-0.607,0.697-0.96,1.221-0.791c0.523,0.17,0.827,0.799,0.677,1.404
											c-0.151,0.604-0.696,0.959-1.222,0.789C164.566,93.868,164.264,93.24,164.412,92.634z"/>
									</g>
								</g>
							</g>
							<g>
								<g>
									<g>
										<path style="fill:#6E8EC1;" d="M138.953,84.404c0.15-0.604,0.696-0.959,1.221-0.789c0.523,0.168,0.827,0.797,0.676,1.402
											c-0.15,0.606-0.695,0.961-1.219,0.791S138.805,85.01,138.953,84.404z"/>
									</g>
								</g>
							</g>
							<g>
								<g>
									<g>
										<path style="fill:#6E8EC1;" d="M132.589,82.347c0.151-0.606,0.696-0.961,1.221-0.791c0.522,0.17,0.825,0.799,0.676,1.403
											c-0.149,0.606-0.696,0.961-1.22,0.791C132.742,83.582,132.439,82.953,132.589,82.347z"/>
									</g>
								</g>
							</g>
							<g>
								<g>
									<g>
										<path style="fill:#6E8EC1;" d="M126.225,80.29c0.148-0.606,0.695-0.958,1.219-0.79c0.525,0.17,0.827,0.797,0.678,1.404
											c-0.15,0.604-0.697,0.959-1.221,0.79C126.377,81.524,126.074,80.896,126.225,80.29z"/>
									</g>
								</g>
							</g>
							<g>
								<g>
									<g>
										<path style="fill:#6E8EC1;" d="M119.859,78.232c0.149-0.605,0.696-0.959,1.22-0.789c0.524,0.168,0.826,0.797,0.677,1.402
											s-0.695,0.96-1.22,0.791C120.012,79.466,119.71,78.838,119.859,78.232z"/>
									</g>
								</g>
							</g>
							<g>
								<g>
									<g>
										<path style="fill:#6E8EC1;" d="M113.494,76.175c0.15-0.606,0.697-0.961,1.221-0.79c0.523,0.168,0.827,0.797,0.676,1.402
											c-0.148,0.606-0.695,0.961-1.219,0.792C113.648,77.41,113.345,76.782,113.494,76.175z"/>
									</g>
								</g>
							</g>
						</g>
						<g>
							<g>
								<polygon style="fill:#6E8EC1;" points="208.066,108.487 204.26,107.257 193.781,96.996 202.822,99.919 								"/>
							</g>
						</g>
						<g>
							<g>
								<g>
									<path style="fill:#9EB8E0;" d="M143.363,105.769l-10.439-3.375l2.129-8.604l10.441,3.375
										c2.102,0.68,3.328,3.156,2.741,5.532l0,0C147.646,105.074,145.465,106.449,143.363,105.769z"/>
								</g>
							</g>
							<g>
								<g>
									<polygon style="fill:#6E8EC1;" points="135.463,103.215 132.279,102.186 134.41,93.583 137.593,94.612 									"/>
								</g>
							</g>
						</g>
						<g>
							<g>
								<polygon style="fill:#6E8EC1;" points="163.828,116.261 159.543,114.876 130.828,86.763 149.457,92.785 								"/>
							</g>
						</g>
					</g>
				</g>
			</g>
		</g>
		<g>
			<g>
				<g style="opacity:0.25;">
					<polygon style="fill:#D8E6F6;" points="114.789,387.475 93.218,387.475 289.295,50.917 310.865,50.917 					"/>
				</g>
				<g style="opacity:0.25;">
					<polygon style="fill:#D8E6F6;" points="154.418,387.475 132.848,387.475 328.924,50.917 350.493,50.917 					"/>
				</g>
			</g>
			<g>
				<g style="opacity:0.25;">
					<polygon style="fill:#D8E6F6;" points="58.71,268.91 188.462,46.197 166.893,46.197 37.14,268.91 					"/>
				</g>
				<g style="opacity:0.25;">
					<polygon style="fill:#D8E6F6;" points="83.539,292.773 228.093,46.197 206.521,46.197 61.969,292.773 					"/>
				</g>
			</g>
			<g>
				<g style="opacity:0.25;">
					<polygon style="fill:#D8E6F6;" points="251.344,394.186 381.097,171.475 359.524,171.475 229.772,394.186 					"/>
				</g>
				<g style="opacity:0.25;">
					<polygon style="fill:#D8E6F6;" points="288.695,397.334 420.725,171.475 399.157,171.475 267.126,397.334 					"/>
				</g>
			</g>
		</g>
	</g>
	<g style="opacity:0.9;">
		<g>
			<rect x="410.215" y="108.202" style="fill:#D8E6F6;" width="10.796" height="241.218"/>
		</g>
		<g>
			<rect x="39.419" y="141.857" style="fill:#D8E6F6;" width="10.794" height="212.362"/>
		</g>
		<g>
			<rect x="224.818" y="27.744" style="fill:#D8E6F6;" width="10.794" height="363.616"/>
		</g>
		<g>
			<rect x="14.561" y="318.896" style="fill:#D8E6F6;" width="429.477" height="10.898"/>
		</g>
	</g>
	<g>
		<polygon style="fill:#316088;" points="410.312,113.697 418.367,73.234 407.762,71.613 403.358,112.634 		"/>
		<polygon style="fill:#316088;" points="402.853,117.054 402.089,123.431 408.297,124.379 409.474,118.066 		"/>
	</g>
	<g>
		<path style="fill:#DB6A4D;" d="M31.59,114.579c-9.81,1.876-16.289,11.118-14.467,20.644l8.956-1.762
			c-1.053-5.51,1.227-10.526,6.902-11.612c5.675-1.083,11.13,2.503,12.183,8.013c1.049,5.483-2.438,11.953-8.063,13.088
			l-3.379,0.646l2.901,12.632l5.65-1.08l-1.378-8.987c8.097-2.669,13.377-9.25,11.757-17.728
			C50.832,118.904,41.4,112.705,31.59,114.579z"/>
		<polygon style="fill:#DB6A4D;" points="37.785,161.289 39.297,167.875 44.082,166.961 43.061,160.281 		"/>
	</g>
</g>
</svg>
