<?xml version="1.0" encoding="iso-8859-1"?>
<!-- Generator: Adobe Illustrator 16.0.0, SVG Export Plug-In . SVG Version: 6.00 Build 0)  -->
<!DOCTYPE svg PUBLIC "-//W3C//DTD SVG 1.1//EN" "http://www.w3.org/Graphics/SVG/1.1/DTD/svg11.dtd">
<svg version="1.1" id="&#x5716;&#x5C64;_1" xmlns="http://www.w3.org/2000/svg" xmlns:xlink="http://www.w3.org/1999/xlink" x="0px"
	 y="0px" width="192.421px" height="303.696px" viewBox="0 0 192.421 303.696" style="enable-background:new 0 0 192.421 303.696;"
	 xml:space="preserve">
<g>
	<g>
		<g>
			<path style="fill:#8A4424;" d="M57.813,192.339h-2.967c0-4.57-3.719-8.285-8.286-8.285c-4.568,0-8.288,3.715-8.288,8.285h-2.966
				c0-6.207,5.049-11.254,11.254-11.254C52.764,181.085,57.813,186.132,57.813,192.339z"/>
		</g>
		<path style="fill:#8A4424;" d="M93.647,233.501c0,4.836-3.956,8.791-8.792,8.791H25.942c-4.835,0-8.791-3.955-8.791-8.791v-33.285
			c0-4.832,3.956-8.789,8.791-8.789h58.913c4.836,0,8.792,3.957,8.792,8.789V233.501z"/>
		<path style="fill:#945139;" d="M84.805,233.501c0,4.836-3.953,8.791-8.79,8.791H17.103c-4.837,0-8.791-3.955-8.791-8.791v-33.285
			c0-4.832,3.954-8.789,8.791-8.789h58.912c4.837,0,8.79,3.957,8.79,8.789V233.501z"/>
		<g>
			<defs>
				<path id="SVGID_1_" d="M84.805,233.501c0,4.836-3.953,8.791-8.79,8.791H17.103c-4.837,0-8.791-3.955-8.791-8.791v-33.285
					c0-4.832,3.954-8.789,8.791-8.789h58.912c4.837,0,8.79,3.957,8.79,8.789V233.501z"/>
			</defs>
			<clipPath id="SVGID_2_">
				<use xlink:href="#SVGID_1_"  style="overflow:visible;"/>
			</clipPath>
			<g style="clip-path:url(#SVGID_2_);">
				<g>
					<path style="fill:#B6725A;stroke:#7D4E22;stroke-miterlimit:10;" d="M22.477,193.929c0,6.068-4.921,10.99-10.987,10.99
						c-6.069,0-10.989-4.922-10.989-10.99c0-6.066,4.92-10.988,10.989-10.988C17.556,182.94,22.477,187.862,22.477,193.929z"/>
					<path style="fill:#B6725A;stroke:#7D4E22;stroke-miterlimit:10;" d="M92.251,193.929c0,6.068-4.922,10.99-10.989,10.99
						c-6.066,0-10.988-4.922-10.988-10.99c0-6.066,4.922-10.988,10.988-10.988C87.329,182.94,92.251,187.862,92.251,193.929z"/>
				</g>
				<g>
					<circle style="fill:#B6725A;stroke:#7D4E22;stroke-miterlimit:10;" cx="11.488" cy="240.487" r="10.988"/>
					<circle style="fill:#B6725A;stroke:#7D4E22;stroke-miterlimit:10;" cx="81.262" cy="240.487" r="10.989"/>
				</g>
			</g>
		</g>
		<rect x="30.293" y="209.755" style="fill:#B6725A;" width="33.116" height="10.254"/>
	</g>
	<g>
		<g>
			<g>
				<g>
					<g>
						<g>
							<path style="fill:#333E42;" d="M120.496,285.128l11.242,6.416l7.429,1.496c3.414,0.688,5.965,3.543,6.269,7.016l0.141,1.623
								l-41.219-0.064l1.152-16.471L120.496,285.128z"/>
							<path style="fill:#040000;" d="M104.194,301.884l41.542,0.064l0.005-2.629c0.002-0.518-0.419-0.941-0.939-0.941
								l-40.603-0.061L104.194,301.884"/>
						</g>
						<polygon style="fill:#EEBA9D;" points="105.51,285.144 105.322,267.093 120.463,266.952 120.496,285.128 						"/>
					</g>
					<path style="fill:#3F7AAE;" d="M126.448,135.417c4.497,31.092-2.059,142.125-2.059,142.125h-20.475l-1.544-111.152
						l-5.141-32.967C97.23,133.423,125.334,127.724,126.448,135.417z"/>
					<path style="fill:none;stroke:#8A4424;stroke-width:0.75;stroke-miterlimit:10;" d="M110.359,148.651v20.117
						c0,2.795-4.087,5.059-7.699,5.059l0,0"/>
					<rect x="101.93" y="267.507" style="fill:#4B88B6;" width="24.917" height="10.035"/>
					
						<line style="fill:none;stroke:#8A4424;stroke-width:0.75;stroke-miterlimit:10;" x1="124.965" y1="267.507" x2="103.774" y2="267.507"/>
				</g>
				<g>
					<g>
						<g>
							<path style="fill:#333E42;" d="M92.894,286.88l11.241,6.412l7.428,1.498c3.414,0.686,5.965,3.547,6.269,7.014l0.138,1.625
								l-41.313-0.063l1.25-16.475L92.894,286.88z"/>
							<path style="fill:#040000;" d="M76.495,303.632l41.636,0.064l0.004-2.732c0.003-0.463-0.373-0.832-0.833-0.836L76.5,300.067
								L76.495,303.632"/>
						</g>
						<polygon style="fill:#EEBA9D;" points="77.906,286.892 77.88,268.843 92.858,268.7 92.894,286.88 						"/>
					</g>
					<path style="fill:#3F7AAE;" d="M106.552,137.329L96.465,279.337l-22.503,0.482c0,0-2.182-104.65,3.503-135.93
						C78.797,136.556,106.552,137.329,106.552,137.329z"/>
					
						<line style="fill:none;stroke:#8A4424;stroke-width:0.75;stroke-miterlimit:10;" x1="127.568" y1="148.651" x2="77.006" y2="148.651"/>
					
						<line style="fill:none;stroke:#8A4424;stroke-width:0.75;stroke-miterlimit:10;" x1="103.123" y1="148.651" x2="102.197" y2="196.374"/>
					<rect x="72.358" y="269.784" style="fill:#4B88B6;" width="26.122" height="10.035"/>
					
						<line style="fill:none;stroke:#8A4424;stroke-width:0.75;stroke-miterlimit:10;" x1="97.145" y1="269.784" x2="73.552" y2="269.784"/>
					<path style="fill:none;stroke:#8A4424;stroke-width:0.75;stroke-miterlimit:10;" d="M85.421,148.651
						c0,0-6.058,17.551-3.465,121.133"/>
				</g>
			</g>
			<g>
				<g>
					<path style="fill:#1D1E1C;" d="M168.724,82.689l-9.783-7.117c-1.953-1.417-2.386-4.151-0.966-6.104l16.758-23.032
						c1.421-1.954,4.153-2.383,6.105-0.962l9.783,7.116c1.951,1.421,2.384,4.152,0.963,6.104l-16.755,23.033
						C173.406,83.68,170.674,84.11,168.724,82.689z"/>
					<g>
						<g>
							<path style="fill:#EBB699;" d="M183.455,73.068c2.796,4.427,1.472,10.28-2.956,13.071
								c-4.425,2.797-10.277,1.473-13.071-2.953c-2.793-4.426-1.469-10.28,2.957-13.072
								C174.811,67.319,180.665,68.643,183.455,73.068z"/>
						</g>
						<polyline style="fill:#EBB699;" points="158.368,97.089 170.189,81.151 179.445,86.536 168.247,103.743 						"/>
					</g>
					<path style="fill:#384C9A;" d="M117.994,59.296c0,0,8.412,6.937,22.229,35.408l5.621,14.604l15.981-22.556l17.22,9.516
						l-24.412,34.612c-4.772,6.773-14.747,6.973-19.794,0.404l-24.271-37.362L117.994,59.296z"/>
					
						<line style="fill:none;stroke:#294288;stroke-width:0.75;stroke-miterlimit:10;" x1="174.779" y1="102.317" x2="157.147" y2="93.35"/>
					
						<line style="fill:none;stroke:#294288;stroke-width:0.75;stroke-miterlimit:10;" x1="145.845" y1="109.308" x2="141.376" y2="117.182"/>
				</g>
				<g>
					<path style="fill:#F0EFEF;" d="M66.182,73.123c0,0,4.48-20.747,26.275-18.56c19.892,1.992,19.892,1.992,19.892,1.992
						s13.667,5.776,11.766,22.086c-1.9,16.307,0.614,30.18,1.102,33.06c0.484,2.877,2.636,30.957,0.399,31.32
						c-21.916,3.525-49.655-0.637-49.655-0.637L66.182,73.123z"/>
					<path style="fill:#384C9A;" d="M92.457,54.563c0,0,4.857,59.639-5.066,116.038c-0.921,5.24-21.209-1.711-21.209-1.711
						l2.184-101.902C68.365,66.988,74.899,52.128,92.457,54.563z"/>
					<path style="fill:#384C9A;" d="M108.172,56.028c0,0,7.753,7.254,9.488,29.504c1.475,18.922,5.497,66.733,6.219,82.172
						c0.123,2.592,2.492,4.492,5.049,4.045l8.258-1.443c0,0-6.211-60.957-6.767-71.654c-0.565-10.895-3.067-26.29-10.401-36.92
						C114.747,54.102,108.172,56.028,108.172,56.028z"/>
					<path style="fill:none;stroke:#294288;stroke-width:0.75;stroke-miterlimit:10;" d="M133.042,128.515
						c0,0-2.505-37.18-4.548-45.129"/>
				</g>
				<g>
					<g>
						<g>
							<path style="fill:#EBB699;" d="M42.479,187.312c-4.534-2.621-6.087-8.412-3.468-12.945c2.617-4.533,8.412-6.084,12.944-3.469
								c4.533,2.619,6.086,8.414,3.47,12.947C52.808,188.374,47.012,189.927,42.479,187.312z"/>
						</g>
						<polyline style="fill:#EBB699;" points="54.113,153.368 50.733,172.964 40.372,172.522 42.272,152.083 						"/>
					</g>
					<path style="fill:#384C9A;" d="M73.943,60.149c0,0-34.896,29.199-38.206,105.276l24.74-1.258c0,0,3.268-51.725,23.855-76.643
						C84.333,87.524,88.55,70.804,73.943,60.149z"/>
					
						<line style="fill:none;stroke:#294288;stroke-width:0.75;stroke-miterlimit:10;" x1="61.24" y1="156.282" x2="36.191" y2="157.737"/>
					<path style="fill:none;stroke:#294288;stroke-width:0.75;stroke-miterlimit:10;" d="M67.074,125.155
						c0,0,2.089-13.617,14.969-34.651"/>
				</g>
			</g>
			<g>
				<g>
					<g>
						<path style="fill:#EBB699;" d="M93.067,53.517L92.54,30.72l16.1,4.626l-0.169,18.313c-0.039,4.253-2.185,7.677-6.44,7.636
							l-1.331-0.006C96.445,61.252,93.03,57.77,93.067,53.517z"/>
					</g>
					<path style="fill:#D68E7D;" d="M93.276,34.155c0,0-1.084,20.299,15.163,20.43l0.229-10.525L93.276,34.155z"/>
				</g>
				<g>
					<path style="fill:#D68E7D;" d="M126.145,29.585c0.037,2.731-2.153,4.975-4.887,5.009c-2.731,0.035-4.976-2.152-5.009-4.886
						c-0.035-2.73,2.152-4.975,4.886-5.012C123.865,24.664,126.111,26.852,126.145,29.585z"/>
					<path style="fill:#EBB699;" d="M108.404,48.816l-0.55,0.008c-8.098,0.102-14.749-6.386-14.85-14.486l-0.206-16.565
						c-0.027-2.098,1.653-3.819,3.75-3.845l19.307-0.24c3.747-0.047,6.822,2.952,6.87,6.698l0.166,13.58
						C122.994,42.065,116.508,48.715,108.404,48.816z"/>
					<path style="fill:#161E21;" d="M93.846,28.422l3.339-9.89c0,0,23.609,3.963,29.266-2.866c5.43-6.562-1.151-14.643-5.91-15.529
						c-3.719-0.692-5.85,1.379-8.638,3c-2.788,1.617-9.408-1.258-11.449-1.317c-2.038-0.061-13.052-1.199-12.949,9.197
						c0,0-18.418,9.593,5.357,31.886C92.861,42.903,96.144,36.54,93.846,28.422z"/>
					<circle style="fill:#EBB699;" cx="91.417" cy="29.217" r="4.949"/>
					<path style="fill:#161E21;" d="M93.688,19.103l-0.01-4.088l4.275,0.796l0.006,1.073l1.623,0.129c0,0,0.895,4.499-1.577,6.543
						l0.076,10.751c0.009,1.674,0.795,3.313,2.226,4.182c0.912,0.556,1.633,1.313,3.177,0.992c4.351-0.904,2.136-4.036,11.064-4.078
						c8.179-0.033,7.819,4.524,7.819,4.524s-1.069,8.71-12.225,9.786c-11.16,1.08-17.138-5.668-16.416-15.167l-0.025-10.198
						C91.771,23.641,92.641,21.083,93.688,19.103z"/>
					<g>
						<path style="fill:#161E21;" d="M109.835,27.868c-0.043,0.659-0.612,1.16-1.274,1.116c-0.658-0.04-1.157-0.612-1.114-1.269
							c0.042-0.659,0.612-1.16,1.271-1.12C109.377,26.639,109.878,27.208,109.835,27.868z"/>
						<circle style="fill:#161E21;" cx="118.874" cy="27.632" r="1.196"/>
						
							<path style="fill:none;stroke:#D68E7D;stroke-width:0.5509;stroke-linecap:round;stroke-linejoin:round;stroke-miterlimit:10;" d="
							M115.357,28l0.354,4.964c0,0-0.189,1.813-2.772,1.132"/>
						<path style="fill:#161E21;" d="M105.394,24.314c0.074,0.014,0.147,0.017,0.225,0.014l5.412-0.267
							c0.604-0.03,1.069-0.542,1.042-1.148c-0.028-0.604-0.541-1.068-1.149-1.039l-5.413,0.264
							c-0.605,0.031-1.071,0.545-1.041,1.149C104.493,23.817,104.892,24.236,105.394,24.314z"/>
						<path style="fill:#161E21;" d="M117.721,23.938c0.072,0.012,0.146,0.016,0.221,0.012l3.313-0.162
							c0.606-0.028,1.07-0.543,1.039-1.146c-0.027-0.607-0.544-1.072-1.147-1.043l-3.31,0.162c-0.606,0.03-1.072,0.546-1.04,1.148
							C116.821,23.439,117.216,23.862,117.721,23.938z"/>
						
							<path style="fill:none;stroke:#D68E7D;stroke-width:0.5509;stroke-linecap:round;stroke-linejoin:round;stroke-miterlimit:10;" d="
							M110.569,39.449c0,0,2.466-1.55,6.225,0"/>
					</g>
				</g>
			</g>
		</g>
	</g>
</g>
</svg>
