<?xml version="1.0" encoding="iso-8859-1"?>
<!-- Generator: Adobe Illustrator 16.0.0, SVG Export Plug-In . SVG Version: 6.00 Build 0)  -->
<!DOCTYPE svg PUBLIC "-//W3C//DTD SVG 1.1//EN" "http://www.w3.org/Graphics/SVG/1.1/DTD/svg11.dtd">
<svg version="1.1" id="&#x5716;&#x5C64;_1" xmlns="http://www.w3.org/2000/svg" xmlns:xlink="http://www.w3.org/1999/xlink" x="0px"
	 y="0px" width="66.479px" height="12.07px" viewBox="0 0 66.479 12.07" style="enable-background:new 0 0 66.479 12.07;"
	 xml:space="preserve">
<g style="opacity:0.8;">
	<path style="fill:#316088;" d="M11.234,2.422l-0.906,0.695c-0.5-0.65-1.102-1.145-1.801-1.48C7.826,1.301,7.057,1.133,6.219,1.133
		c-0.918,0-1.766,0.221-2.547,0.66c-0.781,0.44-1.387,1.031-1.816,1.773S1.211,5.144,1.211,6.07c0,1.401,0.48,2.57,1.441,3.508
		s2.172,1.406,3.637,1.406c1.609,0,2.955-0.63,4.039-1.891l0.906,0.688c-0.574,0.729-1.289,1.293-2.145,1.691
		c-0.857,0.398-1.814,0.597-2.871,0.597c-2.012,0-3.598-0.668-4.758-2.007C0.486,8.933,0,7.568,0,5.969
		c0-1.682,0.59-3.098,1.77-4.246S4.426,0,6.203,0c1.072,0,2.041,0.213,2.906,0.637C9.973,1.062,10.682,1.656,11.234,2.422z"/>
	<path style="fill:#316088;" d="M17.783,3.063c1.309,0,2.395,0.475,3.256,1.422c0.781,0.865,1.174,1.889,1.174,3.07
		c0,1.188-0.414,2.226-1.24,3.113C20.145,11.557,19.082,12,17.783,12c-1.305,0-2.371-0.443-3.197-1.332
		c-0.828-0.888-1.24-1.926-1.24-3.113c0-1.177,0.391-2.197,1.174-3.063C15.381,3.539,16.469,3.063,17.783,3.063z M17.779,4.133
		c-0.91,0-1.691,0.336-2.344,1.008c-0.654,0.672-0.98,1.484-0.98,2.438c0,0.615,0.148,1.188,0.447,1.719
		c0.297,0.531,0.699,0.941,1.207,1.23c0.506,0.289,1.063,0.434,1.67,0.434c0.605,0,1.162-0.145,1.67-0.434
		c0.506-0.289,0.908-0.699,1.207-1.23c0.297-0.531,0.447-1.104,0.447-1.719c0-0.953-0.328-1.766-0.984-2.438
		S18.684,4.133,17.779,4.133z"/>
	<path style="fill:#316088;" d="M24.635,3.281h1.094v1.523c0.438-0.583,0.922-1.02,1.453-1.309s1.109-0.434,1.734-0.434
		c0.637,0,1.199,0.162,1.691,0.484c0.492,0.323,0.855,0.758,1.09,1.305s0.352,1.398,0.352,2.555v4.375h-1.094V7.727
		c0-0.979-0.041-1.633-0.121-1.961c-0.127-0.563-0.369-0.985-0.729-1.27c-0.359-0.283-0.83-0.426-1.408-0.426
		c-0.66,0-1.254,0.219-1.777,0.656s-0.867,0.979-1.035,1.625c-0.104,0.422-0.156,1.193-0.156,2.313v3.117h-1.094V3.281z"/>
	<path style="fill:#316088;" d="M35.746,0.125h1.094v3.156h1.734v0.945H36.84v7.555h-1.094V4.227h-1.492V3.281h1.492V0.125z"/>
	<path style="fill:#316088;" d="M49.084,3.281v8.5h-1.078V10.32c-0.459,0.558-0.973,0.977-1.543,1.258S45.268,12,44.592,12
		c-1.203,0-2.23-0.435-3.082-1.308c-0.852-0.872-1.277-1.934-1.277-3.184c0-1.224,0.43-2.271,1.289-3.141
		c0.859-0.869,1.893-1.305,3.102-1.305c0.697,0,1.328,0.148,1.895,0.445c0.564,0.297,1.061,0.742,1.488,1.336V3.281H49.084z
		 M44.713,4.117c-0.609,0-1.172,0.149-1.686,0.449c-0.516,0.299-0.926,0.719-1.23,1.26c-0.303,0.541-0.455,1.113-0.455,1.717
		c0,0.599,0.152,1.171,0.459,1.717c0.309,0.547,0.721,0.972,1.238,1.275c0.518,0.305,1.072,0.457,1.666,0.457
		c0.598,0,1.164-0.15,1.701-0.453c0.535-0.301,0.947-0.709,1.236-1.225s0.434-1.096,0.434-1.74c0-0.983-0.324-1.805-0.973-2.466
		C46.457,4.447,45.66,4.117,44.713,4.117z"/>
	<path style="fill:#316088;" d="M60.195,5.047l-0.867,0.539c-0.75-0.994-1.771-1.492-3.066-1.492c-1.035,0-1.896,0.333-2.58,0.999
		s-1.025,1.475-1.025,2.427c0,0.619,0.156,1.202,0.471,1.748c0.316,0.547,0.748,0.971,1.297,1.271
		c0.549,0.303,1.164,0.453,1.846,0.453c1.248,0,2.268-0.497,3.059-1.492l0.867,0.57c-0.406,0.611-0.953,1.086-1.637,1.424
		C57.873,11.831,57.094,12,56.219,12c-1.344,0-2.459-0.426-3.344-1.281c-0.887-0.854-1.328-1.893-1.328-3.117
		c0-0.822,0.207-1.587,0.621-2.293c0.414-0.705,0.982-1.256,1.707-1.652c0.723-0.396,1.533-0.594,2.43-0.594
		c0.563,0,1.105,0.086,1.629,0.258s0.967,0.396,1.332,0.672C59.629,4.269,59.939,4.62,60.195,5.047z"/>
	<path style="fill:#316088;" d="M63.65,0.125h1.094v3.156h1.734v0.945h-1.734v7.555H63.65V4.227h-1.492V3.281h1.492V0.125z"/>
</g>
</svg>
