<?xml version="1.0" encoding="iso-8859-1"?>
<!-- Generator: Adobe Illustrator 16.0.0, SVG Export Plug-In . SVG Version: 6.00 Build 0)  -->
<!DOCTYPE svg PUBLIC "-//W3C//DTD SVG 1.1//EN" "http://www.w3.org/Graphics/SVG/1.1/DTD/svg11.dtd">
<svg version="1.1" id="&#x5716;&#x5C64;_1" xmlns="http://www.w3.org/2000/svg" xmlns:xlink="http://www.w3.org/1999/xlink" x="0px"
	 y="0px" width="8.458px" height="16.305px" viewBox="0 0 8.458 16.305" style="enable-background:new 0 0 8.458 16.305;"
	 xml:space="preserve">
<g>
	<path style="fill:#595758;" d="M5.504,2.861C5.675,2.66,6.02,2.516,6.509,2.516c0.456,0,1.001,0.066,1.517,0.212l0.432-2.329
		C7.57,0.088,6.654,0,5.707,0S4.014,0.145,3.413,0.491C2.81,0.822,2.409,1.2,2.181,1.749c-0.23,0.491-0.344,1.314-0.344,2.35v0.917
		H0v2.66h1.837v8.37c0.771,0.176,1.576,0.259,2.408,0.259c0.313,0,0.631,0,0.944-0.057V7.676h2.436v-2.66H5.188V4.156
		C5.188,3.499,5.276,3.096,5.504,2.861z"/>
</g>
</svg>
