<?xml version="1.0" encoding="iso-8859-1"?>
<!-- Generator: Adobe Illustrator 16.0.0, SVG Export Plug-In . SVG Version: 6.00 Build 0)  -->
<!DOCTYPE svg PUBLIC "-//W3C//DTD SVG 1.1//EN" "http://www.w3.org/Graphics/SVG/1.1/DTD/svg11.dtd">
<svg version="1.1" id="&#x5716;&#x5C64;_1" xmlns="http://www.w3.org/2000/svg" xmlns:xlink="http://www.w3.org/1999/xlink" x="0px"
	 y="0px" width="62.689px" height="10.561px" viewBox="0 0 62.689 10.561" style="enable-background:new 0 0 62.689 10.561;"
	 xml:space="preserve">
<g>
	<g>
		<path style="fill:#9FA0A0;" d="M0,0.252h4.99v1.867H1.9v1.824h3.09v1.84H1.9v4.525H0V0.252z"/>
		<path style="fill:#9FA0A0;" d="M10.33,2.68c0.702,0,1.361,0.175,1.979,0.525c0.617,0.352,1.099,0.828,1.445,1.43
			s0.52,1.25,0.52,1.947c0,0.702-0.174,1.358-0.523,1.969c-0.348,0.611-0.823,1.088-1.425,1.433S11.062,10.5,10.337,10.5
			c-1.066,0-1.977-0.38-2.73-1.139C6.852,8.603,6.475,7.681,6.475,6.596c0-1.162,0.426-2.13,1.278-2.904
			C8.5,3.017,9.359,2.68,10.33,2.68z M10.36,4.436c-0.579,0-1.063,0.202-1.448,0.605S8.334,5.961,8.334,6.59
			c0,0.646,0.19,1.171,0.571,1.572c0.382,0.4,0.864,0.602,1.449,0.602c0.584,0,1.07-0.203,1.458-0.609
			c0.388-0.405,0.582-0.927,0.582-1.564c0-0.639-0.19-1.156-0.571-1.556C11.441,4.635,10.954,4.436,10.36,4.436z"/>
		<path style="fill:#9FA0A0;" d="M15.944,0h1.866v10.309h-1.866V0z"/>
		<path style="fill:#9FA0A0;" d="M19.65,0h1.866v10.309H19.65V0z"/>
		<path style="fill:#9FA0A0;" d="M27.056,2.68c0.702,0,1.361,0.175,1.979,0.525c0.617,0.352,1.099,0.828,1.445,1.43
			S31,5.885,31,6.582c0,0.702-0.174,1.358-0.523,1.969c-0.348,0.611-0.823,1.088-1.425,1.433S27.787,10.5,27.063,10.5
			c-1.066,0-1.977-0.38-2.73-1.139C23.577,8.603,23.2,7.681,23.2,6.596c0-1.162,0.426-2.13,1.278-2.904
			C25.226,3.017,26.085,2.68,27.056,2.68z M27.086,4.436c-0.579,0-1.063,0.202-1.448,0.605S25.06,5.961,25.06,6.59
			c0,0.646,0.19,1.171,0.571,1.572c0.382,0.4,0.864,0.602,1.449,0.602c0.584,0,1.07-0.203,1.458-0.609
			c0.388-0.405,0.582-0.927,0.582-1.564c0-0.639-0.19-1.156-0.571-1.556C28.167,4.635,27.68,4.436,27.086,4.436z"/>
		<path style="fill:#9FA0A0;" d="M32.05,2.871h1.827l1.495,4.23l1.609-4.23h1.117l1.58,4.184l1.498-4.184h1.838l-2.713,7.438h-1.184
			L37.532,6.07l-1.633,4.238h-1.17L32.05,2.871z"/>
		<path style="fill:#9FA0A0;" d="M48.825,0.252h1.921v6.503c0,0.56,0.049,0.956,0.147,1.188c0.098,0.232,0.26,0.418,0.484,0.557
			c0.227,0.139,0.498,0.209,0.817,0.209c0.337,0,0.628-0.078,0.872-0.232c0.243-0.155,0.412-0.352,0.506-0.591
			c0.093-0.239,0.14-0.696,0.14-1.37V0.252h1.921v5.996c0,1.012-0.057,1.713-0.171,2.105c-0.114,0.392-0.331,0.77-0.653,1.135
			c-0.32,0.364-0.691,0.635-1.11,0.81s-0.907,0.263-1.463,0.263c-0.729,0-1.364-0.167-1.903-0.502
			c-0.541-0.335-0.927-0.754-1.159-1.258s-0.349-1.354-0.349-2.553V0.252z"/>
		<path style="fill:#9FA0A0;" d="M62.553,3.91l-1.155,1.154c-0.47-0.465-0.896-0.697-1.278-0.697c-0.21,0-0.374,0.045-0.492,0.134
			S59.449,4.7,59.449,4.832c0,0.101,0.037,0.193,0.113,0.277c0.074,0.084,0.261,0.199,0.557,0.346l0.684,0.342
			c0.72,0.355,1.215,0.717,1.483,1.086s0.403,0.803,0.403,1.299c0,0.661-0.242,1.213-0.729,1.654
			c-0.484,0.442-1.136,0.664-1.951,0.664c-1.085,0-1.95-0.424-2.598-1.271l1.148-1.252c0.219,0.256,0.475,0.462,0.77,0.619
			c0.293,0.157,0.555,0.236,0.782,0.236c0.246,0,0.444-0.06,0.595-0.178c0.15-0.119,0.226-0.256,0.226-0.41
			c0-0.287-0.271-0.568-0.813-0.842L59.49,7.088c-1.203-0.605-1.805-1.364-1.805-2.275c0-0.588,0.227-1.091,0.68-1.508
			c0.454-0.417,1.034-0.625,1.74-0.625c0.483,0,0.938,0.105,1.363,0.317C61.896,3.209,62.257,3.514,62.553,3.91z"/>
	</g>
</g>
</svg>
