<?xml version="1.0" encoding="iso-8859-1"?>
<!-- Generator: Adobe Illustrator 16.0.0, SVG Export Plug-In . SVG Version: 6.00 Build 0)  -->
<!DOCTYPE svg PUBLIC "-//W3C//DTD SVG 1.1//EN" "http://www.w3.org/Graphics/SVG/1.1/DTD/svg11.dtd">
<svg version="1.1" id="&#x5716;&#x5C64;_1" xmlns="http://www.w3.org/2000/svg" xmlns:xlink="http://www.w3.org/1999/xlink" x="0px"
	 y="0px" width="98.479px" height="12.219px" viewBox="0 0 98.479 12.219" style="enable-background:new 0 0 98.479 12.219;"
	 xml:space="preserve">
<g>
	<path style="fill:#316088;" d="M0,0.508h2.219v4.336h3.836V0.508h2.211V12H6.055V6.961H2.219V12H0V0.508z"/>
	<path style="fill:#316088;" d="M15.049,3.281c0.801,0,1.555,0.2,2.262,0.602c0.705,0.401,1.256,0.945,1.652,1.633
		c0.395,0.688,0.594,1.43,0.594,2.227c0,0.802-0.199,1.552-0.598,2.25s-0.941,1.243-1.629,1.637s-1.445,0.59-2.273,0.59
		c-1.219,0-2.26-0.434-3.121-1.301c-0.863-0.867-1.293-1.921-1.293-3.16c0-1.328,0.486-2.435,1.461-3.32
		C12.957,3.667,13.939,3.281,15.049,3.281z M15.084,5.289c-0.662,0-1.215,0.23-1.656,0.691c-0.439,0.461-0.66,1.051-0.66,1.77
		c0,0.739,0.217,1.339,0.652,1.797s0.988,0.688,1.656,0.688s1.223-0.231,1.666-0.695s0.666-1.06,0.666-1.789
		s-0.219-1.321-0.654-1.777S15.762,5.289,15.084,5.289z"/>
	<path style="fill:#316088;" d="M20.756,3.5h2.088l1.709,4.836l1.84-4.836h1.277l1.805,4.781L31.186,3.5h2.102L30.186,12h-1.352
		l-1.813-4.844L25.154,12h-1.336L20.756,3.5z"/>
	<path style="fill:#316088;" d="M40.604,0c0.373,0,0.693,0.136,0.961,0.406s0.402,0.599,0.402,0.984c0,0.38-0.133,0.704-0.398,0.973
		c-0.264,0.269-0.58,0.402-0.949,0.402c-0.379,0-0.703-0.137-0.971-0.41s-0.4-0.605-0.4-0.996c0-0.375,0.133-0.695,0.396-0.961
		C39.91,0.133,40.229,0,40.604,0z M39.537,3.5h2.133V12h-2.133V3.5z"/>
	<path style="fill:#316088;" d="M44.266,0.367h2.133V3.5h1.266v1.836h-1.266V12h-2.133V5.336h-1.094V3.5h1.094V0.367z"/>
	<path style="fill:#316088;" d="M53.139,3.5h2.088l1.709,4.836l1.84-4.836h1.277l1.805,4.781L63.568,3.5h2.102L62.568,12h-1.352
		l-1.813-4.844L57.537,12h-1.336L53.139,3.5z"/>
	<path style="fill:#316088;" d="M71.27,3.281c0.803,0,1.557,0.2,2.262,0.602c0.707,0.401,1.258,0.945,1.652,1.633
		c0.396,0.688,0.594,1.43,0.594,2.227c0,0.802-0.199,1.552-0.598,2.25s-0.941,1.243-1.629,1.637s-1.445,0.59-2.273,0.59
		c-1.219,0-2.258-0.434-3.121-1.301c-0.861-0.867-1.293-1.921-1.293-3.16c0-1.328,0.488-2.435,1.461-3.32
		C69.18,3.667,70.16,3.281,71.27,3.281z M71.305,5.289c-0.662,0-1.215,0.23-1.654,0.691c-0.441,0.461-0.662,1.051-0.662,1.77
		c0,0.739,0.219,1.339,0.654,1.797s0.986,0.688,1.654,0.688s1.225-0.231,1.668-0.695s0.664-1.06,0.664-1.789
		s-0.217-1.321-0.652-1.777S71.982,5.289,71.305,5.289z"/>
	<path style="fill:#316088;" d="M77.42,3.5h1.828v1.07c0.197-0.422,0.461-0.742,0.789-0.961s0.688-0.328,1.078-0.328
		c0.275,0,0.564,0.073,0.867,0.219l-0.664,1.836c-0.25-0.125-0.457-0.188-0.617-0.188c-0.328,0-0.605,0.203-0.832,0.609
		s-0.34,1.203-0.34,2.391l0.008,0.414V12H77.42V3.5z"/>
	<path style="fill:#316088;" d="M83.453,0.219h2.133v6.786L88.727,3.5h2.678l-3.662,4.073l4.1,4.427h-2.646l-3.609-3.917V12h-2.133
		V0.219z"/>
	<path style="fill:#316088;" d="M98.322,4.688l-1.32,1.32c-0.537-0.531-1.023-0.797-1.461-0.797c-0.24,0-0.428,0.051-0.563,0.152
		c-0.137,0.102-0.203,0.228-0.203,0.379c0,0.114,0.043,0.22,0.129,0.316s0.297,0.228,0.637,0.395l0.781,0.391
		c0.822,0.406,1.387,0.82,1.695,1.242c0.307,0.422,0.461,0.917,0.461,1.484c0,0.755-0.277,1.386-0.832,1.891
		s-1.299,0.758-2.23,0.758c-1.24,0-2.23-0.484-2.969-1.453l1.313-1.43c0.25,0.292,0.543,0.527,0.879,0.707s0.633,0.27,0.895,0.27
		c0.281,0,0.508-0.067,0.68-0.203s0.258-0.292,0.258-0.469c0-0.328-0.311-0.648-0.93-0.961L94.822,8.32
		c-1.375-0.692-2.063-1.56-2.063-2.602c0-0.672,0.258-1.246,0.777-1.723c0.518-0.477,1.18-0.715,1.988-0.715
		c0.551,0,1.07,0.121,1.559,0.363C97.57,3.887,97.982,4.234,98.322,4.688z"/>
</g>
</svg>
