<?xml version="1.0" encoding="iso-8859-1"?>
<!-- Generator: Adobe Illustrator 16.0.0, SVG Export Plug-In . SVG Version: 6.00 Build 0)  -->
<!DOCTYPE svg PUBLIC "-//W3C//DTD SVG 1.1//EN" "http://www.w3.org/Graphics/SVG/1.1/DTD/svg11.dtd">
<svg version="1.1" id="&#x5716;&#x5C64;_1" xmlns="http://www.w3.org/2000/svg" xmlns:xlink="http://www.w3.org/1999/xlink" x="0px"
	 y="0px" width="74.534px" height="12.967px" viewBox="0 0 74.534 12.967" style="enable-background:new 0 0 74.534 12.967;"
	 xml:space="preserve">
<g>
	<path style="fill:#9FA0A0;" d="M0,0h1.914v8.23h2.789v1.824H0V0z"/>
	<path style="fill:#9FA0A0;" d="M12.494,2.617h1.865v7.438h-1.865V9.27c-0.365,0.346-0.73,0.596-1.096,0.748
		c-0.367,0.152-0.764,0.229-1.191,0.229c-0.961,0-1.791-0.372-2.492-1.117S6.662,7.457,6.662,6.35c0-1.148,0.34-2.089,1.018-2.822
		c0.678-0.734,1.502-1.102,2.473-1.102c0.445,0,0.863,0.085,1.256,0.254c0.391,0.168,0.754,0.421,1.086,0.758V2.617z M10.531,4.148
		c-0.576,0-1.055,0.205-1.438,0.612C8.713,5.168,8.521,5.691,8.521,6.33c0,0.643,0.195,1.171,0.582,1.586
		c0.389,0.414,0.867,0.621,1.436,0.621c0.586,0,1.072-0.203,1.457-0.611c0.387-0.408,0.58-0.942,0.58-1.604
		c0-0.646-0.193-1.171-0.58-1.572C11.611,4.35,11.123,4.148,10.531,4.148z"/>
	<path style="fill:#9FA0A0;" d="M17.297,2.617h1.865V3.38c0.424-0.356,0.807-0.604,1.15-0.744s0.695-0.21,1.055-0.21
		c0.738,0,1.363,0.258,1.877,0.773c0.434,0.438,0.648,1.084,0.648,1.941v4.914h-1.846V6.799c0-0.889-0.039-1.478-0.119-1.77
		c-0.08-0.291-0.219-0.513-0.416-0.665c-0.197-0.153-0.441-0.229-0.732-0.229c-0.377,0-0.701,0.127-0.973,0.379
		c-0.27,0.254-0.457,0.603-0.563,1.049c-0.055,0.232-0.082,0.734-0.082,1.509v2.983h-1.865V2.617z"/>
	<path style="fill:#9FA0A0;" d="M32.244,2.617h1.859v6.371c0,1.258-0.252,2.184-0.758,2.775c-0.68,0.803-1.703,1.203-3.07,1.203
		c-0.729,0-1.342-0.091-1.838-0.273c-0.498-0.182-0.916-0.449-1.258-0.803s-0.596-0.783-0.76-1.289h2.059
		c0.182,0.21,0.416,0.369,0.703,0.476s0.627,0.161,1.02,0.161c0.5,0,0.904-0.078,1.209-0.232c0.307-0.155,0.521-0.355,0.646-0.602
		s0.188-0.67,0.188-1.271c-0.328,0.328-0.672,0.563-1.031,0.707c-0.361,0.144-0.768,0.215-1.225,0.215
		c-0.998,0-1.84-0.359-2.529-1.08c-0.688-0.72-1.031-1.631-1.031-2.734c0-1.18,0.363-2.128,1.094-2.844
		c0.66-0.646,1.449-0.971,2.365-0.971c0.428,0,0.832,0.079,1.213,0.236s0.762,0.416,1.145,0.775V2.617z M30.311,4.17
		c-0.588,0-1.074,0.197-1.457,0.591s-0.574,0.89-0.574,1.487c0,0.619,0.197,1.127,0.588,1.523c0.393,0.396,0.885,0.596,1.477,0.596
		c0.58,0,1.057-0.194,1.432-0.582c0.377-0.387,0.564-0.895,0.564-1.523c0-0.62-0.189-1.124-0.566-1.512
		C31.395,4.363,30.906,4.17,30.311,4.17z"/>
	<path style="fill:#9FA0A0;" d="M37.033,2.617h1.887v3.582c0,0.697,0.049,1.182,0.145,1.453s0.25,0.482,0.463,0.633
		C39.738,8.436,40,8.51,40.313,8.51c0.311,0,0.574-0.074,0.791-0.222s0.377-0.366,0.482-0.653c0.078-0.214,0.117-0.672,0.117-1.373
		V2.617h1.865V5.77c0,1.299-0.102,2.188-0.307,2.666c-0.252,0.583-0.621,1.031-1.107,1.343c-0.488,0.312-1.107,0.468-1.859,0.468
		c-0.816,0-1.477-0.182-1.979-0.547c-0.504-0.364-0.859-0.872-1.064-1.523c-0.145-0.451-0.219-1.271-0.219-2.461V2.617z"/>
	<path style="fill:#9FA0A0;" d="M51.98,2.617h1.867v7.438H51.98V9.27c-0.363,0.346-0.729,0.596-1.096,0.748
		c-0.365,0.152-0.764,0.229-1.191,0.229c-0.961,0-1.791-0.372-2.492-1.117S46.15,7.457,46.15,6.35c0-1.148,0.338-2.089,1.018-2.822
		c0.678-0.734,1.502-1.102,2.471-1.102c0.447,0,0.865,0.085,1.256,0.254c0.393,0.168,0.754,0.421,1.086,0.758V2.617z M50.02,4.148
		c-0.578,0-1.057,0.205-1.438,0.612C48.199,5.168,48.01,5.691,48.01,6.33c0,0.643,0.193,1.171,0.582,1.586
		c0.389,0.414,0.867,0.621,1.434,0.621c0.586,0,1.072-0.203,1.459-0.611c0.385-0.408,0.578-0.942,0.578-1.604
		c0-0.646-0.193-1.171-0.578-1.572C51.098,4.35,50.609,4.148,50.02,4.148z"/>
	<path style="fill:#9FA0A0;" d="M62.279,2.617h1.86v6.371c0,1.258-0.252,2.184-0.759,2.775c-0.68,0.803-1.703,1.203-3.07,1.203
		c-0.729,0-1.342-0.091-1.838-0.273c-0.498-0.182-0.916-0.449-1.258-0.803s-0.596-0.783-0.76-1.289h2.059
		c0.182,0.21,0.416,0.369,0.703,0.476s0.627,0.161,1.02,0.161c0.5,0,0.904-0.078,1.209-0.232c0.307-0.155,0.521-0.355,0.646-0.602
		s0.188-0.67,0.188-1.271c-0.328,0.328-0.672,0.563-1.031,0.707c-0.361,0.144-0.768,0.215-1.225,0.215
		c-0.998,0-1.84-0.359-2.529-1.08c-0.688-0.72-1.031-1.631-1.031-2.734c0-1.18,0.363-2.128,1.094-2.844
		c0.66-0.646,1.449-0.971,2.365-0.971c0.428,0,0.832,0.079,1.213,0.236s0.762,0.416,1.145,0.775V2.617z M60.346,4.17
		c-0.588,0-1.074,0.197-1.457,0.591s-0.574,0.89-0.574,1.487c0,0.619,0.197,1.127,0.588,1.523c0.393,0.396,0.885,0.596,1.477,0.596
		c0.58,0,1.057-0.194,1.432-0.582c0.377-0.387,0.564-0.895,0.564-1.523c0-0.62-0.189-1.124-0.566-1.512
		C61.43,4.363,60.941,4.17,60.346,4.17z"/>
	<path style="fill:#9FA0A0;" d="M74.528,6.877h-5.996c0.088,0.528,0.318,0.949,0.695,1.261c0.375,0.312,0.855,0.468,1.438,0.468
		c0.697,0,1.297-0.243,1.799-0.73l1.572,0.738c-0.393,0.556-0.861,0.967-1.408,1.233s-1.197,0.399-1.949,0.399
		c-1.166,0-2.117-0.367-2.85-1.104c-0.734-0.736-1.102-1.658-1.102-2.766c0-1.135,0.367-2.076,1.098-2.826
		c0.732-0.75,1.648-1.125,2.752-1.125c1.17,0,2.123,0.375,2.857,1.125c0.732,0.75,1.1,1.74,1.1,2.971L74.528,6.877z M72.661,5.406
		c-0.123-0.414-0.365-0.752-0.729-1.012s-0.785-0.389-1.264-0.389c-0.52,0-0.977,0.146-1.369,0.438
		c-0.246,0.182-0.475,0.503-0.686,0.963H72.661z"/>
</g>
</svg>
