<?xml version="1.0" encoding="iso-8859-1"?>
<!-- Generator: Adobe Illustrator 16.0.0, SVG Export Plug-In . SVG Version: 6.00 Build 0)  -->
<!DOCTYPE svg PUBLIC "-//W3C//DTD SVG 1.1//EN" "http://www.w3.org/Graphics/SVG/1.1/DTD/svg11.dtd">
<svg version="1.1" id="&#x5716;&#x5C64;_1" xmlns="http://www.w3.org/2000/svg" xmlns:xlink="http://www.w3.org/1999/xlink" x="0px"
	 y="0px" width="529.822px" height="530.607px" viewBox="0 0 529.822 530.607" style="enable-background:new 0 0 529.822 530.607;"
	 xml:space="preserve">
<g>
	<path style="fill:#DB6A4D;" d="M264.911,0H0v530.608h264.911l0,0c146.308,0,264.911-119.39,264.911-265.694
		C529.822,118.604,411.218,0,264.911,0z"/>
	<path style="fill:#FFFFFF;" d="M463.517,210.56h-0.138l-6.15-5.483h-58.82l-6.979,5.483h-0.124c-5.441,0-9.859,4.435-9.859,9.89
		v82.346c0,4.85,3.502,8.864,8.107,9.688v8.375c0,1.514,2.698,2.742,6.012,2.742c3.322,0,6.019-1.229,6.019-2.742v-8.201h53.322
		v8.201c0,1.514,2.696,2.742,6.016,2.742c3.32,0,6.013-1.229,6.013-2.742v-8.846c3.757-1.398,6.439-4.978,6.439-9.217v-82.347
		C473.373,214.994,468.969,210.56,463.517,210.56z M401.598,211.8h51.771c2.336,0,4.225,2.223,4.225,4.941
		c0,2.729-1.889,4.94-4.225,4.94h-51.771c-2.344,0-4.242-2.211-4.242-4.94C397.355,214.023,399.255,211.8,401.598,211.8z
		 M393.551,301.148c-3.282,0-5.946-2.68-5.946-5.983c0-3.293,2.664-5.968,5.946-5.968c3.292,0,5.955,2.675,5.955,5.968
		C399.506,298.468,396.843,301.148,393.551,301.148z M391.332,277.88v-47.555h72.148v47.555H391.332z M462.904,301.148
		c-3.289,0-5.951-2.68-5.951-5.983c0-3.293,2.662-5.968,5.951-5.968c3.283,0,5.953,2.675,5.953,5.968
		C468.857,298.468,466.188,301.148,462.904,301.148z"/>
</g>
</svg>
