<?xml version="1.0" encoding="iso-8859-1"?>
<!-- Generator: Adobe Illustrator 16.0.0, SVG Export Plug-In . SVG Version: 6.00 Build 0)  -->
<!DOCTYPE svg PUBLIC "-//W3C//DTD SVG 1.1//EN" "http://www.w3.org/Graphics/SVG/1.1/DTD/svg11.dtd">
<svg version="1.1" id="&#x5716;&#x5C64;_1" xmlns="http://www.w3.org/2000/svg" xmlns:xlink="http://www.w3.org/1999/xlink" x="0px"
	 y="0px" width="463.513px" height="434.996px" viewBox="0 0 463.513 434.996" style="enable-background:new 0 0 463.513 434.996;"
	 xml:space="preserve">
<g>
	<g>
		<g style="opacity:0.5;">
			<ellipse style="fill:#6E8EC1;" cx="230.411" cy="428.277" rx="206.598" ry="6.719"/>
		</g>
		<g style="opacity:0.9;">
			<g>
				<g>
					<path style="fill:#FFFFFF;" d="M333.338,128.219c-0.354-0.501-0.709-1.003-1.06-1.505
						c-18.354-26.287-28.743-57.226-51.211-80.632c-46.36-48.29-132.501-57.121-192.593-33.526
						C34.495,33.75,8.114,84.996,8.108,142.324C8.087,351.26,161.793,426.572,314.334,385.916
						c61.177-16.305,149.896-71.813,132.736-147.412c-5.573-24.559-23.975-38.061-45.077-48.564
						C374.116,176.063,351.3,153.56,333.338,128.219z"/>
				</g>
				<g>
					<defs>
						<path id="SVGID_1_" d="M333.338,128.219c-0.354-0.501-0.709-1.003-1.06-1.505c-18.354-26.287-28.743-57.226-51.211-80.632
							c-46.36-48.29-132.501-57.121-192.593-33.526C34.495,33.75,8.114,84.996,8.108,142.324
							C8.087,351.26,161.793,426.572,314.334,385.916c61.177-16.305,149.896-71.813,132.736-147.412
							c-5.573-24.559-23.975-38.061-45.077-48.564C374.116,176.063,351.3,153.56,333.338,128.219z"/>
					</defs>
					<clipPath id="SVGID_2_">
						<use xlink:href="#SVGID_1_"  style="overflow:visible;"/>
					</clipPath>
					<g style="clip-path:url(#SVGID_2_);">
						<g>
							<rect x="22.26" y="296.686" style="fill:#9EB8E0;" width="434.993" height="116.289"/>
						</g>
						<g style="opacity:0.5;">
							<path style="fill:#9EB8E0;" d="M463.299,266.018c-0.139-4.066-8.733-22.625-32.922-11.629
								c-3.12-14.443-20.765-23.176-33.516-16.58c-2.457-8.164-14.355-24.66-30.001-27.082c-20.703-3.207-38.69,6.422-52.371,22.891
								c-11.05-10.719-30.364-10.271-40.94,0.951c-11.175-10.992-27.505-16.031-42.641-13.16
								c-15.134,2.873-28.699,13.582-35.421,27.973c-9.952-9.627-28.284-6.875-35.209,5.287
								c-8.267-10.541-26.026-10.557-34.31-0.031c-1.177-8.795-6.793-16.811-14.48-20.674c-7.686-3.861-17.219-3.457-24.576,1.047
								c-6.811-6.834-16.984-9.836-26.232-7.742c-9.249,2.094-17.301,9.221-20.762,18.383c-5.836-7.264-16.202-10.16-24.753-6.924
								c-20.899,7.914-14.113,39.898-14.113,57.959H463.16C463.8,296.686,463.393,268.742,463.299,266.018z"/>
						</g>
						<g>
							<g>
								<g>
									<polygon style="fill:#6E8EC1;" points="157.207,79.976 155.238,79.341 138.078,82.447 146.637,85.213 									"/>
								</g>
							</g>
							<g>
								<g>
									<path style="fill:#9EB8E0;" d="M209.461,79.081l-15.07,13.377c-7.109,3.02-23.332-2.224-25.569-2.946
										c-4.472-1.447-56.731-18.338-62.31-20.141c-2.451-0.793-12.332,1.395-16.459,2.277c-1.17,0.251-1.549,1.861-0.707,2.826
										c10.311,11.797,83.547,31.549,83.547,31.549c19.06,5.436,29.297-3.742,30.504-6.482l10.278-19.098L209.461,79.081z"/>
								</g>
							</g>
							<g>
								<g>
									<path style="fill:#6E8EC1;" d="M104.016,73.402c0.525,0.17,1.07-0.174,1.219-0.768c0.146-0.594-0.161-1.214-0.688-1.383
										l-4.709-1.523c-1.51,0.24-3.102,0.536-4.604,0.835L104.016,73.402z"/>
								</g>
							</g>
							<g>
								<g>
									<g>
										<g>
											<path style="fill:#6E8EC1;" d="M151.682,88.519c0.151-0.605,0.697-0.96,1.221-0.79c0.525,0.169,0.828,0.798,0.678,1.403
												s-0.697,0.96-1.221,0.79C151.836,89.753,151.533,89.125,151.682,88.519z"/>
										</g>
									</g>
								</g>
								<g>
									<g>
										<g>
											<path style="fill:#6E8EC1;" d="M170.777,94.692c0.15-0.606,0.696-0.961,1.22-0.792c0.524,0.17,0.827,0.799,0.678,1.404
												s-0.696,0.959-1.22,0.79C170.93,95.925,170.627,95.298,170.777,94.692z"/>
										</g>
									</g>
								</g>
								<g>
									<g>
										<g>
											<path style="fill:#6E8EC1;" d="M145.318,86.461c0.15-0.606,0.697-0.96,1.221-0.79s0.826,0.798,0.675,1.402
												c-0.148,0.606-0.695,0.961-1.219,0.793C145.471,87.696,145.168,87.067,145.318,86.461z"/>
										</g>
									</g>
								</g>
								<g>
									<g>
										<g>
											<path style="fill:#6E8EC1;" d="M158.049,90.576c0.149-0.605,0.695-0.959,1.22-0.791c0.522,0.171,0.825,0.799,0.677,1.404
												c-0.151,0.606-0.697,0.959-1.221,0.791C158.201,91.81,157.897,91.183,158.049,90.576z"/>
										</g>
									</g>
								</g>
								<g>
									<g>
										<g>
											<path style="fill:#6E8EC1;" d="M164.412,92.634c0.15-0.607,0.697-0.96,1.221-0.791c0.523,0.17,0.827,0.799,0.677,1.404
												c-0.151,0.604-0.696,0.959-1.222,0.789C164.566,93.868,164.264,93.24,164.412,92.634z"/>
										</g>
									</g>
								</g>
								<g>
									<g>
										<g>
											<path style="fill:#6E8EC1;" d="M138.953,84.404c0.15-0.604,0.696-0.959,1.221-0.789c0.523,0.168,0.827,0.797,0.676,1.402
												c-0.15,0.606-0.695,0.961-1.219,0.791S138.805,85.01,138.953,84.404z"/>
										</g>
									</g>
								</g>
								<g>
									<g>
										<g>
											<path style="fill:#6E8EC1;" d="M132.589,82.347c0.151-0.606,0.696-0.961,1.221-0.791c0.522,0.17,0.825,0.799,0.676,1.403
												c-0.149,0.606-0.696,0.961-1.22,0.791C132.742,83.582,132.439,82.953,132.589,82.347z"/>
										</g>
									</g>
								</g>
								<g>
									<g>
										<g>
											<path style="fill:#6E8EC1;" d="M126.225,80.29c0.148-0.606,0.695-0.958,1.219-0.79c0.525,0.17,0.827,0.797,0.678,1.404
												c-0.15,0.604-0.697,0.959-1.221,0.79C126.377,81.524,126.074,80.896,126.225,80.29z"/>
										</g>
									</g>
								</g>
								<g>
									<g>
										<g>
											<path style="fill:#6E8EC1;" d="M119.859,78.232c0.149-0.605,0.696-0.959,1.22-0.789c0.524,0.168,0.826,0.797,0.677,1.402
												s-0.695,0.96-1.22,0.791C120.012,79.466,119.71,78.838,119.859,78.232z"/>
										</g>
									</g>
								</g>
								<g>
									<g>
										<g>
											<path style="fill:#6E8EC1;" d="M113.494,76.175c0.15-0.606,0.697-0.961,1.221-0.79c0.523,0.168,0.827,0.797,0.676,1.402
												c-0.148,0.606-0.695,0.961-1.219,0.792C113.648,77.41,113.345,76.782,113.494,76.175z"/>
										</g>
									</g>
								</g>
							</g>
							<g>
								<g>
									<polygon style="fill:#6E8EC1;" points="208.066,108.487 204.26,107.257 193.781,96.996 202.822,99.919 									"/>
								</g>
							</g>
							<g>
								<g>
									<g>
										<path style="fill:#9EB8E0;" d="M143.363,105.769l-10.439-3.375l2.129-8.604l10.441,3.375
											c2.102,0.68,3.328,3.156,2.741,5.532l0,0C147.646,105.074,145.465,106.449,143.363,105.769z"/>
									</g>
								</g>
								<g>
									<g>
										<polygon style="fill:#6E8EC1;" points="135.463,103.215 132.279,102.186 134.41,93.583 137.593,94.612 										"/>
									</g>
								</g>
							</g>
							<g>
								<g>
									<polygon style="fill:#6E8EC1;" points="163.828,116.261 159.543,114.876 130.828,86.763 149.457,92.785 									"/>
								</g>
							</g>
						</g>
					</g>
				</g>
			</g>
			<g>
				<g>
					<g style="opacity:0.25;">
						<polygon style="fill:#D8E6F6;" points="114.789,387.475 93.218,387.475 289.295,50.917 310.865,50.917 						"/>
					</g>
					<g style="opacity:0.25;">
						<polygon style="fill:#D8E6F6;" points="154.418,387.475 132.848,387.475 328.924,50.917 350.493,50.917 						"/>
					</g>
				</g>
				<g>
					<g style="opacity:0.25;">
						<polygon style="fill:#D8E6F6;" points="58.71,268.91 188.462,46.197 166.893,46.197 37.14,268.91 						"/>
					</g>
					<g style="opacity:0.25;">
						<polygon style="fill:#D8E6F6;" points="83.539,292.773 228.093,46.197 206.521,46.197 61.969,292.773 						"/>
					</g>
				</g>
				<g>
					<g style="opacity:0.25;">
						<polygon style="fill:#D8E6F6;" points="251.344,394.186 381.097,171.474 359.524,171.474 229.772,394.186 						"/>
					</g>
					<g style="opacity:0.25;">
						<polygon style="fill:#D8E6F6;" points="288.695,397.334 420.725,171.474 399.157,171.474 267.126,397.334 						"/>
					</g>
				</g>
			</g>
		</g>
		<g style="opacity:0.9;">
			<g>
				<rect x="410.215" y="108.202" style="fill:#D8E6F6;" width="10.796" height="241.218"/>
			</g>
			<g>
				<rect x="39.419" y="141.857" style="fill:#D8E6F6;" width="10.794" height="212.362"/>
			</g>
			<g>
				<rect x="224.818" y="27.744" style="fill:#D8E6F6;" width="10.794" height="363.616"/>
			</g>
			<g>
				<rect x="14.561" y="318.896" style="fill:#D8E6F6;" width="429.477" height="10.898"/>
			</g>
		</g>
		<g>
			<polygon style="fill:#316088;" points="410.312,113.697 418.367,73.234 407.762,71.613 403.358,112.634 			"/>
			<polygon style="fill:#316088;" points="402.853,117.054 402.089,123.431 408.297,124.379 409.474,118.066 			"/>
		</g>
		<g>
			<path style="fill:#DB6A4D;" d="M31.59,114.579c-9.81,1.876-16.289,11.118-14.467,20.644l8.956-1.762
				c-1.053-5.51,1.227-10.526,6.902-11.612c5.675-1.083,11.13,2.503,12.183,8.013c1.049,5.483-2.438,11.953-8.063,13.088
				l-3.379,0.646l2.901,12.632l5.65-1.08l-1.378-8.987c8.097-2.669,13.377-9.25,11.757-17.728
				C50.832,118.904,41.4,112.705,31.59,114.579z"/>
			<polygon style="fill:#DB6A4D;" points="37.785,161.289 39.297,167.875 44.082,166.96 43.061,160.281 			"/>
		</g>
	</g>
	
		<line style="fill:none;stroke:#D68E7D;stroke-width:0.5245;stroke-linecap:round;stroke-linejoin:round;stroke-miterlimit:10;" x1="66.902" y1="255.904" x2="67.924" y2="260.936"/>
	<g>
		<g>
			<g>
				<g>
					<polygon style="fill:#040000;" points="194.66,421.822 188.305,422.018 188.029,412.908 194.385,412.713 					"/>
					<path style="fill:#040000;" d="M196.495,422.934c0.083,2.752-2.08,5.051-4.828,5.129c-2.75,0.084-5.044-2.076-5.128-4.828
						c-0.083-2.748,2.079-5.043,4.827-5.127C194.115,418.025,196.41,420.184,196.495,422.934z"/>
				</g>
				<g>
					
						<rect x="212.95" y="412.064" transform="matrix(0.9995 -0.0301 0.0301 0.9995 -12.4436 6.695)" style="fill:#040000;" width="6.358" height="9.112"/>
					<path style="fill:#040000;" d="M221.279,422.188c0.082,2.752-2.078,5.047-4.827,5.127c-2.751,0.086-5.046-2.074-5.13-4.826
						c-0.081-2.752,2.08-5.045,4.829-5.127S221.195,419.439,221.279,422.188z"/>
				</g>
			</g>
			<g>
				<path style="fill:#4B708D;" d="M222.183,416.922l-37.686,1.135c-3.459,0.105-6.534-2.178-7.436-5.52l-14.651-54.338
					c-1.256-4.654,2.166-9.262,6.986-9.41l37.688-1.135c3.456-0.102,6.535,2.184,7.434,5.525l14.65,54.332
					C230.425,412.17,227.004,416.777,222.183,416.922z"/>
				<path style="fill:#C59D62;" d="M240.179,395.82l-14.648-54.34c-0.901-3.34-3.979-5.623-7.436-5.52l-37.687,1.137
					c-2.49,0.072-4.605,1.34-5.896,3.188l-10.54,11.344l11.604,2.867l12.496,46.348c0.9,3.338,3.977,5.625,7.435,5.521l29.054-0.879
					c0.968,3.387,2.646,9,2.646,9l10.275-10.766C239.792,401.957,241.01,398.9,240.179,395.82z"/>
				<path style="fill:#AE8047;" d="M222.183,416.922l-37.686,1.135c-3.459,0.105-6.534-2.178-7.436-5.52l-14.651-54.338
					c-1.256-4.654,2.166-9.262,6.986-9.41l37.688-1.135c3.456-0.102,6.535,2.184,7.434,5.525l14.65,54.332
					C230.425,412.17,227.004,416.777,222.183,416.922z"/>
			</g>
			<g>
				<polygon style="fill:#B4BFC1;" points="181.207,359.885 178.207,359.975 155.141,292.805 158.141,292.717 				"/>
				<polygon style="fill:#B4BFC1;" points="201.514,359.275 198.512,359.363 175.445,292.193 178.448,292.104 				"/>
				<path style="fill:#040000;" d="M179.191,294.059l-24.461,0.736c-1.039,0.031-1.908-0.783-1.939-1.822l-0.01-0.387
					c-0.031-1.039,0.785-1.904,1.824-1.938l24.461-0.738c1.039-0.031,1.905,0.787,1.938,1.824l0.01,0.385
					C181.046,293.16,180.23,294.027,179.191,294.059z"/>
				<path style="fill:#796A56;" d="M201.332,360.564l-24.461,0.734c-1.038,0.033-1.905-0.783-1.937-1.822l-0.011-0.387
					c-0.032-1.037,0.784-1.904,1.822-1.936l24.461-0.738c1.039-0.029,1.906,0.787,1.938,1.826l0.011,0.387
					C203.188,359.664,202.371,360.535,201.332,360.564z"/>
			</g>
		</g>
		<polygon style="fill:#F7C7B2;" points="75.457,320.865 79.497,410.963 90.454,411.072 96.819,320.865 		"/>
		<g>
			<path style="fill:#AE8047;" d="M79.497,410.963l-6.196,6.207l-4.859,1.42c-2.234,0.654-3.887,3.426-4.059,6.813l-0.082,1.584
				l26.287,0.16l-0.134-16.074L79.497,410.963z"/>
			<polyline style="fill:#040000;" points="90.697,427.41 64.197,427.246 64.168,423.764 90.668,423.932 90.697,427.41 			"/>
		</g>
		<polygon style="fill:#DA927E;" points="96.037,331.945 95.898,333.896 76.08,334.752 75.955,331.945 		"/>
		<path style="fill:#F6D57F;" d="M90.454,411.072l1.568-20.643c0,0-6.759,1.838-13.517,0l0.991,20.533L90.454,411.072z"/>
		<path style="fill:#F7C7B2;" d="M99.369,319.76l1.847,29.047c0,0,0.237,11.75,7.963,23.092
			c6.489,9.529,22.731,34.053,22.731,34.053l9.128-6.057L120.62,354.49l1.698-36.715L99.369,319.76z"/>
		<g>
			<path style="fill:#AE8047;" d="M131.91,405.951l-1.646,8.613l-3.227,3.9c-1.482,1.797-1.295,5.02,0.463,7.92l0.821,1.354
				l21.851-14.615l-9.134-13.229L131.91,405.951z"/>
			<polyline style="fill:#040000;" points="150.408,413.279 128.382,428.01 126.403,425.146 148.43,410.41 150.408,413.279 			"/>
		</g>
		<path style="fill:#DA927E;" d="M121.576,333.775c-0.006,0.16-21.253,0.977-21.253,0.977l-0.179-2.807h21.519L121.576,333.775z"/>
		<path style="fill:#F6D57F;" d="M131.91,405.951l-11.705-17.621c0,0,11.565,0.246,11.705-8.732l9.128,20.297L131.91,405.951z"/>
		<path style="fill:#DB6A4D;" d="M115.902,262.711c0,0,9.191,4.137,13.721,26.238c4.531,22.1,4.153,42.996,4.153,42.996H60.531
			c0,0,12.705-48.904,22.355-67.936L115.902,262.711z"/>
		<path style="fill:#F7C7B2;" d="M52.527,233.824l14.375,22.08l3.281-8.949l6.373-17.844c0.207-0.459,0.423-0.871,0.637-1.293
			l0.041-0.107l0.012,0.004c4.967-9.658,11.204-8.66,11.204-8.66l-0.68,12.527l6.46,2.371l-7.312,13.297l-0.009,0.188l-0.092-0.004
			l-12.564,22.852c-3.115,6.158-10.793,5.24-14.198-0.762l-18.36-31.811L52.527,233.824z"/>
		<path style="fill:#B81C25;" d="M51.418,234.92l8.07-3.635c1.609-0.725,2.327-2.621,1.603-4.23l-8.563-18.998
			c-0.723-1.609-2.618-2.326-4.227-1.602l-8.07,3.637c-1.607,0.725-2.324,2.617-1.602,4.229l8.561,18.998
			C47.916,234.928,49.809,235.646,51.418,234.92z"/>
		<path style="fill:#F7C7B2;" d="M38.779,234.152c1.111,4.785,5.891,7.758,10.674,6.646c4.781-1.113,7.756-5.893,6.643-10.676
			c-1.113-4.781-5.891-7.756-10.672-6.643C40.642,224.594,37.667,229.373,38.779,234.152z"/>
		<g>
			<path style="fill:#E99415;" d="M111.056,218.154l13.669,0.59c3.803,0.166,6.334,4.004,4.982,7.563l-13.805,36.404l-33.016,1.299
				l-0.02-19.977c0,0-6.588-5.762,1.617-15.943l3.34-8.088c0.461-1.119,1.553-1.848,2.76-1.848H111.056z"/>
			
				<line style="fill:none;stroke:#DFBA60;stroke-width:0.7402;stroke-miterlimit:10;" x1="117.201" y1="258.422" x2="82.867" y2="259.629"/>
		</g>
		<circle style="fill:#F7C7B2;" cx="165.66" cy="290.628" r="8.89"/>
		<path style="fill:#F7C7B2;" d="M118.54,222.682c3.892-4.574,11.083-4.119,14.37,0.904l21.345,29.73
			c0.413,0.576,0.761,1.197,1.038,1.852l15.307,36.414h-10.242l-17.422-34.053l-24.396-23.197
			C115.683,230.975,115.683,226.039,118.54,222.682z"/>
		<g>
			<g>
				<circle style="fill:#AE8047;" cx="119.145" cy="169.523" r="12.106"/>
				<path style="fill:#AE8047;" d="M118.063,181.578h1.766c0,0-1.774-8.95-10.663-10.663L118.063,181.578z"/>
			</g>
			<g>
				<g>
					<path style="fill:#F7C7B2;" d="M111.056,218.154v-14.291H97.702v14.291c0,3.688,2.989,5.094,6.675,5.094l0,0
						C108.064,223.248,111.056,221.842,111.056,218.154z"/>
				</g>
				<path style="fill:#F7C7B2;" d="M111.547,200.613c0,0-1.477,15.945-13.845,14.979l0.012-7.988L111.547,200.613z"/>
			</g>
			<path style="fill:#D9907D;" d="M80.471,195.379c-0.039,2.711,2.124,4.943,4.835,4.986c2.712,0.041,4.944-2.125,4.984-4.836
				c0.043-2.711-2.122-4.941-4.834-4.982C82.746,190.502,80.514,192.668,80.471,195.379z"/>
			<circle style="fill:#AE8047;" cx="100.262" cy="187.385" r="18.721"/>
			<g>
				<g>
					<g>
						<path style="fill:#F7C7B2;" d="M98.639,212.895l0.575,0.008c8.505,0.133,15.506-6.66,15.636-15.164l0.287-16.387
							c0.035-2.201-1.723-4.012-3.924-4.047l-19.18-2.85c-3.933-0.061-8.261,5.62-8.322,9.551l-0.236,13.252
							C83.344,205.764,90.133,212.766,98.639,212.895z"/>
					</g>
				</g>
			</g>
			<path style="fill:#AE8047;" d="M107.412,172.488c-1.711-0.275-3.309-0.364-4.802-0.316l0.202-0.089
				c-25.255-2.044-19.342,15.925-19.342,15.925c2.639-1.313,4.111-2.844,4.939-4.307c2.736,2.666,8.502,6.363,19.652,6.938
				c0.842,2.971,2.703,6.148,6.787,7.1l1.127-7.191h-0.002h0.002C115.977,190.547,121.981,174.83,107.412,172.488z"/>
			<g>
				<circle style="fill:#161E21;" cx="97.664" cy="197.167" r="1.055"/>
				<path style="fill:#161E21;" d="M86.479,197.164c0.042,0.582,0.546,1.02,1.126,0.977c0.584-0.041,1.02-0.545,0.979-1.127
					c-0.042-0.58-0.547-1.02-1.129-0.977C86.875,196.08,86.438,196.584,86.479,197.164z"/>
				
					<path style="fill:none;stroke:#D68E7D;stroke-width:0.5245;stroke-linecap:round;stroke-linejoin:round;stroke-miterlimit:10;" d="
					M90.584,198.145l-0.233,3.625c0,0,0.177,1.596,2.451,0.982"/>
				<path style="fill:#161E21;" d="M100.504,194.082c-0.064,0.014-0.129,0.016-0.197,0.016l-4.773-0.203
					c-0.533-0.023-0.945-0.473-0.926-1.008c0.023-0.531,0.472-0.943,1.009-0.924l4.772,0.201c0.533,0.023,0.944,0.475,0.924,1.008
					C101.295,193.639,100.945,194.014,100.504,194.082z"/>
				<path style="fill:#161E21;" d="M88.523,193.828c-0.063,0.01-0.127,0.012-0.195,0.01l-2.919-0.121
					c-0.532-0.023-0.944-0.473-0.924-1.008c0.022-0.533,0.474-0.945,1.005-0.922l2.92,0.121c0.533,0.023,0.947,0.473,0.925,1.006
					C89.314,193.381,88.97,193.754,88.523,193.828z"/>
				
					<path style="fill:none;stroke:#D68E7D;stroke-width:0.75;stroke-linecap:round;stroke-linejoin:round;stroke-miterlimit:10;" d="
					M97.238,206.174c0,0-3.219-3.049-8.082,0"/>
			</g>
			<path style="fill:#F7C7B2;" d="M110.992,195.379c-0.042,2.711,2.123,4.943,4.834,4.986c2.711,0.041,4.94-2.125,4.982-4.836
				c0.043-2.711-2.122-4.941-4.834-4.982C113.267,190.502,111.033,192.668,110.992,195.379z"/>
		</g>
	</g>
	<g>
		<g>
			<g>
				<path style="fill:#8A4424;" d="M306.523,316.818h-2.967c0-4.57-3.719-8.285-8.286-8.285c-4.568,0-8.288,3.715-8.288,8.285
					h-2.966c0-6.207,5.049-11.254,11.254-11.254C301.475,305.564,306.523,310.611,306.523,316.818z"/>
			</g>
			<path style="fill:#8A4424;" d="M342.358,357.98c0,4.836-3.956,8.791-8.792,8.791h-58.913c-4.835,0-8.791-3.955-8.791-8.791
				v-33.285c0-4.832,3.956-8.789,8.791-8.789h58.913c4.836,0,8.792,3.957,8.792,8.789V357.98z"/>
			<path style="fill:#945139;" d="M333.516,357.98c0,4.836-3.953,8.791-8.79,8.791h-58.912c-4.837,0-8.791-3.955-8.791-8.791
				v-33.285c0-4.832,3.954-8.789,8.791-8.789h58.912c4.837,0,8.79,3.957,8.79,8.789V357.98z"/>
			<g>
				<defs>
					<path id="SVGID_3_" d="M333.516,357.98c0,4.836-3.953,8.791-8.79,8.791h-58.912c-4.837,0-8.791-3.955-8.791-8.791v-33.285
						c0-4.832,3.954-8.789,8.791-8.789h58.912c4.837,0,8.79,3.957,8.79,8.789V357.98z"/>
				</defs>
				<clipPath id="SVGID_4_">
					<use xlink:href="#SVGID_3_"  style="overflow:visible;"/>
				</clipPath>
				<g style="clip-path:url(#SVGID_4_);">
					<g>
						<path style="fill:#B6725A;stroke:#7D4E22;stroke-miterlimit:10;" d="M271.188,318.408c0,6.068-4.921,10.99-10.987,10.99
							c-6.069,0-10.989-4.922-10.989-10.99c0-6.066,4.92-10.988,10.989-10.988C266.267,307.42,271.188,312.342,271.188,318.408z"/>
						<path style="fill:#B6725A;stroke:#7D4E22;stroke-miterlimit:10;" d="M340.962,318.408c0,6.068-4.922,10.99-10.989,10.99
							c-6.066,0-10.988-4.922-10.988-10.99c0-6.066,4.922-10.988,10.988-10.988C336.04,307.42,340.962,312.342,340.962,318.408z"/>
					</g>
					<g>
						<circle style="fill:#B6725A;stroke:#7D4E22;stroke-miterlimit:10;" cx="260.199" cy="364.967" r="10.988"/>
						<circle style="fill:#B6725A;stroke:#7D4E22;stroke-miterlimit:10;" cx="329.973" cy="364.967" r="10.989"/>
					</g>
				</g>
			</g>
			<rect x="279.004" y="334.234" style="fill:#B6725A;" width="33.116" height="10.254"/>
		</g>
		<g>
			<g>
				<g>
					<g>
						<g>
							<g>
								<path style="fill:#333E42;" d="M369.207,409.607l11.242,6.416l7.429,1.496c3.414,0.688,5.965,3.543,6.269,7.016l0.141,1.623
									l-41.219-0.064l1.152-16.471L369.207,409.607z"/>
								<path style="fill:#040000;" d="M352.905,426.363l41.542,0.064l0.005-2.629c0.002-0.518-0.419-0.941-0.939-0.941
									l-40.603-0.061L352.905,426.363"/>
							</g>
							<polygon style="fill:#EEBA9D;" points="354.221,409.623 354.033,391.572 369.174,391.432 369.207,409.607 							"/>
						</g>
						<path style="fill:#3F7AAE;" d="M375.159,259.896c4.497,31.092-2.059,142.125-2.059,142.125h-20.475l-1.544-111.152
							l-5.141-32.967C345.941,257.902,374.045,252.203,375.159,259.896z"/>
						<path style="fill:none;stroke:#8A4424;stroke-width:0.75;stroke-miterlimit:10;" d="M359.07,273.131v20.117
							c0,2.795-4.087,5.059-7.699,5.059l0,0"/>
						<rect x="350.641" y="391.986" style="fill:#4B88B6;" width="24.917" height="10.035"/>
						
							<line style="fill:none;stroke:#8A4424;stroke-width:0.75;stroke-miterlimit:10;" x1="373.676" y1="391.986" x2="352.485" y2="391.986"/>
					</g>
					<g>
						<g>
							<g>
								<path style="fill:#333E42;" d="M341.604,411.359l11.241,6.412l7.428,1.498c3.414,0.686,5.965,3.547,6.269,7.014l0.138,1.625
									l-41.313-0.063l1.25-16.475L341.604,411.359z"/>
								<path style="fill:#040000;" d="M325.206,428.111l41.636,0.064l0.004-2.732c0.003-0.463-0.373-0.832-0.833-0.836
									l-40.802-0.061L325.206,428.111"/>
							</g>
							<polygon style="fill:#EEBA9D;" points="326.617,411.371 326.591,393.322 341.569,393.18 341.604,411.359 							"/>
						</g>
						<path style="fill:#3F7AAE;" d="M355.263,261.809l-10.087,142.008l-22.503,0.482c0,0-2.182-104.65,3.503-135.93
							C327.508,261.035,355.263,261.809,355.263,261.809z"/>
						
							<line style="fill:none;stroke:#8A4424;stroke-width:0.75;stroke-miterlimit:10;" x1="376.279" y1="273.131" x2="325.717" y2="273.131"/>
						
							<line style="fill:none;stroke:#8A4424;stroke-width:0.75;stroke-miterlimit:10;" x1="351.834" y1="273.131" x2="350.908" y2="320.854"/>
						<rect x="321.069" y="394.264" style="fill:#4B88B6;" width="26.122" height="10.035"/>
						
							<line style="fill:none;stroke:#8A4424;stroke-width:0.75;stroke-miterlimit:10;" x1="345.855" y1="394.264" x2="322.263" y2="394.264"/>
						<path style="fill:none;stroke:#8A4424;stroke-width:0.75;stroke-miterlimit:10;" d="M334.132,273.131
							c0,0-6.058,17.551-3.465,121.133"/>
					</g>
				</g>
				<g>
					<g>
						<path style="fill:#1D1E1C;" d="M417.435,207.168l-9.783-7.117c-1.953-1.416-2.386-4.15-0.966-6.104l16.758-23.033
							c1.421-1.954,4.153-2.383,6.105-0.962l9.783,7.116c1.951,1.422,2.384,4.152,0.963,6.105l-16.755,23.033
							C422.117,208.16,419.385,208.59,417.435,207.168z"/>
						<g>
							<g>
								<path style="fill:#EBB699;" d="M432.166,197.547c2.796,4.428,1.472,10.281-2.956,13.072
									c-4.425,2.797-10.277,1.473-13.071-2.953c-2.793-4.426-1.469-10.281,2.957-13.072
									C423.521,191.799,429.376,193.123,432.166,197.547z"/>
							</g>
							<polyline style="fill:#EBB699;" points="407.079,221.568 418.9,205.631 428.156,211.016 416.958,228.223 							"/>
						</g>
						<path style="fill:#384C9A;" d="M366.705,183.775c0,0,8.412,6.938,22.229,35.408l5.621,14.604l15.981-22.555l17.22,9.516
							l-24.412,34.611c-4.772,6.773-14.747,6.973-19.794,0.404l-24.271-37.361L366.705,183.775z"/>
						
							<line style="fill:none;stroke:#294288;stroke-width:0.75;stroke-miterlimit:10;" x1="423.49" y1="226.797" x2="405.858" y2="217.83"/>
						
							<line style="fill:none;stroke:#294288;stroke-width:0.75;stroke-miterlimit:10;" x1="394.556" y1="233.787" x2="390.087" y2="241.662"/>
					</g>
					<g>
						<path style="fill:#F0EFEF;" d="M314.893,197.602c0,0,4.48-20.746,26.275-18.559c19.892,1.992,19.892,1.992,19.892,1.992
							s13.667,5.775,11.766,22.086c-1.9,16.307,0.614,30.18,1.102,33.059c0.484,2.877,2.636,30.957,0.399,31.32
							c-21.916,3.525-49.655-0.637-49.655-0.637L314.893,197.602z"/>
						<path style="fill:#384C9A;" d="M341.168,179.043c0,0,4.857,59.639-5.066,116.037c-0.921,5.24-21.209-1.711-21.209-1.711
							l2.184-101.902C317.076,191.467,323.61,176.607,341.168,179.043z"/>
						<path style="fill:#384C9A;" d="M356.883,180.508c0,0,7.753,7.254,9.488,29.504c1.475,18.922,5.497,66.732,6.219,82.172
							c0.123,2.592,2.492,4.492,5.049,4.045l8.258-1.443c0,0-6.211-60.957-6.767-71.654c-0.565-10.895-3.067-26.289-10.401-36.92
							C363.458,178.582,356.883,180.508,356.883,180.508z"/>
						<path style="fill:none;stroke:#294288;stroke-width:0.75;stroke-miterlimit:10;" d="M381.753,252.994
							c0,0-2.505-37.18-4.548-45.129"/>
					</g>
					<g>
						<g>
							<g>
								<path style="fill:#EBB699;" d="M291.19,311.791c-4.534-2.621-6.087-8.412-3.468-12.945
									c2.617-4.533,8.412-6.084,12.944-3.469c4.533,2.619,6.086,8.414,3.47,12.947
									C301.519,312.854,295.723,314.406,291.19,311.791z"/>
							</g>
							<polyline style="fill:#EBB699;" points="302.824,277.848 299.444,297.443 289.083,297.002 290.983,276.563 							"/>
						</g>
						<path style="fill:#384C9A;" d="M322.654,184.629c0,0-34.896,29.199-38.206,105.275l24.74-1.258
							c0,0,3.268-51.725,23.855-76.643C333.044,212.004,337.261,195.283,322.654,184.629z"/>
						
							<line style="fill:none;stroke:#294288;stroke-width:0.75;stroke-miterlimit:10;" x1="309.951" y1="280.762" x2="284.902" y2="282.217"/>
						<path style="fill:none;stroke:#294288;stroke-width:0.75;stroke-miterlimit:10;" d="M315.785,249.635
							c0,0,2.089-13.617,14.969-34.65"/>
					</g>
				</g>
				<g>
					<g>
						<g>
							<path style="fill:#EBB699;" d="M341.778,177.996l-0.527-22.796l16.1,4.626l-0.169,18.313
								c-0.039,4.254-2.185,7.678-6.44,7.637l-1.331-0.006C345.156,185.732,341.741,182.25,341.778,177.996z"/>
						</g>
						<path style="fill:#D68E7D;" d="M341.987,158.634c0,0-1.084,20.299,15.163,20.43l0.229-10.526L341.987,158.634z"/>
					</g>
					<g>
						<path style="fill:#D68E7D;" d="M374.855,154.065c0.037,2.731-2.153,4.975-4.887,5.009c-2.731,0.035-4.976-2.152-5.009-4.886
							c-0.035-2.73,2.152-4.975,4.886-5.012C372.576,149.143,374.822,151.332,374.855,154.065z"/>
						<path style="fill:#EBB699;" d="M357.115,173.295l-0.55,0.008c-8.098,0.102-14.749-6.386-14.85-14.486l-0.206-16.565
							c-0.027-2.098,1.653-3.819,3.75-3.845l19.307-0.24c3.747-0.047,6.822,2.952,6.87,6.698l0.166,13.58
							C371.705,166.544,365.219,173.195,357.115,173.295z"/>
						<path style="fill:#161E21;" d="M342.557,152.902l3.339-9.89c0,0,23.609,3.963,29.266-2.866
							c5.43-6.562-1.151-14.643-5.91-15.529c-3.719-0.692-5.85,1.379-8.638,3c-2.788,1.617-9.408-1.258-11.449-1.317
							c-2.038-0.061-13.052-1.199-12.949,9.197c0,0-18.418,9.593,5.357,31.886C341.572,167.382,344.854,161.019,342.557,152.902z"/>
						<circle style="fill:#EBB699;" cx="340.128" cy="153.697" r="4.949"/>
						<path style="fill:#161E21;" d="M342.398,143.583l-0.01-4.088l4.275,0.796l0.006,1.073l1.623,0.129
							c0,0,0.895,4.499-1.577,6.543l0.076,10.751c0.009,1.674,0.795,3.313,2.226,4.182c0.912,0.556,1.633,1.313,3.177,0.992
							c4.351-0.904,2.136-4.036,11.064-4.078c8.179-0.033,7.819,4.524,7.819,4.524s-1.069,8.71-12.225,9.786
							c-11.16,1.081-17.138-5.668-16.416-15.167l-0.025-10.198C340.481,148.121,341.352,145.562,342.398,143.583z"/>
						<g>
							<path style="fill:#161E21;" d="M358.546,152.347c-0.043,0.659-0.612,1.16-1.274,1.116c-0.658-0.04-1.157-0.612-1.114-1.269
								c0.042-0.659,0.612-1.16,1.271-1.12C358.088,151.119,358.589,151.687,358.546,152.347z"/>
							<circle style="fill:#161E21;" cx="367.584" cy="152.111" r="1.196"/>
							
								<path style="fill:none;stroke:#D68E7D;stroke-width:0.5509;stroke-linecap:round;stroke-linejoin:round;stroke-miterlimit:10;" d="
								M364.068,152.48l0.354,4.964c0,0-0.189,1.813-2.772,1.132"/>
							<path style="fill:#161E21;" d="M354.104,148.793c0.074,0.014,0.147,0.017,0.225,0.014l5.412-0.267
								c0.604-0.03,1.069-0.542,1.042-1.148c-0.028-0.604-0.541-1.068-1.149-1.039l-5.413,0.264
								c-0.605,0.031-1.071,0.545-1.041,1.149C353.204,148.296,353.603,148.715,354.104,148.793z"/>
							<path style="fill:#161E21;" d="M366.432,148.417c0.072,0.012,0.146,0.016,0.221,0.012l3.313-0.162
								c0.606-0.028,1.07-0.543,1.039-1.146c-0.027-0.607-0.544-1.072-1.147-1.043l-3.31,0.162c-0.606,0.03-1.072,0.546-1.04,1.148
								C365.532,147.918,365.927,148.341,366.432,148.417z"/>
							
								<path style="fill:none;stroke:#D68E7D;stroke-width:0.5509;stroke-linecap:round;stroke-linejoin:round;stroke-miterlimit:10;" d="
								M359.28,163.928c0,0,2.466-1.55,6.225,0"/>
						</g>
					</g>
				</g>
			</g>
		</g>
	</g>
</g>
</svg>
