<?xml version="1.0" encoding="iso-8859-1"?>
<!-- Generator: Adobe Illustrator 16.0.0, SVG Export Plug-In . SVG Version: 6.00 Build 0)  -->
<!DOCTYPE svg PUBLIC "-//W3C//DTD SVG 1.1//EN" "http://www.w3.org/Graphics/SVG/1.1/DTD/svg11.dtd">
<svg version="1.1" id="&#x5716;&#x5C64;_1" xmlns="http://www.w3.org/2000/svg" xmlns:xlink="http://www.w3.org/1999/xlink" x="0px"
	 y="0px" width="101.118px" height="19.532px" viewBox="0 0 101.118 19.532" style="enable-background:new 0 0 101.118 19.532;"
	 xml:space="preserve">
<g>
	<g>
		<g>
			<polygon style="opacity:0.8;fill:#2D72A8;" points="89.455,7.96 89.455,8.797 101.115,4.871 101.115,4.045 			"/>
			<polygon style="opacity:0.8;fill:#2D72A8;" points="89.455,9.373 89.455,10.211 101.115,6.285 101.115,5.458 			"/>
			<polygon style="opacity:0.8;fill:#2D72A8;" points="89.455,10.787 89.455,11.624 101.115,7.698 101.115,6.872 			"/>
			<polygon style="fill:#DB6A4D;" points="89.455,0.905 89.448,0.125 101.115,4.045 99.957,4.434 			"/>
			<polygon style="fill:#DB6A4D;" points="89.455,2.318 89.448,1.539 99.01,4.751 97.854,5.14 			"/>
			<polygon style="fill:#DB6A4D;" points="89.455,3.731 89.448,2.951 96.904,5.458 95.749,5.847 			"/>
		</g>
		<g>
			<polygon style="opacity:0.8;fill:#595758;" points="89.458,15.837 89.458,16.676 101.118,12.75 101.118,11.923 			"/>
			<polygon style="opacity:0.8;fill:#595758;" points="89.458,17.25 89.458,18.088 101.118,14.162 101.118,13.337 			"/>
			<polygon style="opacity:0.8;fill:#595758;" points="89.458,18.664 89.458,19.502 101.118,15.576 101.118,14.751 			"/>
			<polygon style="fill:#9F9E9F;" points="93.651,10.211 94.835,9.813 101.118,11.923 99.961,12.312 			"/>
			<polygon style="fill:#9F9E9F;" points="91.58,10.909 92.734,10.52 99.014,12.63 97.857,13.019 			"/>
			<polygon style="fill:#9F9E9F;" points="89.458,11.61 90.634,11.228 96.907,13.337 95.752,13.725 			"/>
		</g>
	</g>
	<g>
		<g>
			<rect style="fill:#5FA4C2;" width="5.113" height="19.484"/>
			<polygon style="fill:#3F7AAE;" points="9.073,19.484 14.188,19.484 5.113,0 0,0 			"/>
			<rect x="32.25" y="14.601" style="fill:#3F7AAE;" width="1.955" height="0.692"/>
			<polygon style="fill:#316088;" points="35.605,19.532 40.545,19.532 37.738,13.233 33.752,15.293 			"/>
			<rect x="9.073" style="fill:#316088;" width="5.114" height="19.484"/>
			<rect x="43.436" y="0.047" style="fill:#3F7AAE;" width="5.113" height="19.485"/>
			<polygon style="fill:#3F7AAE;" points="27.137,19.479 32.25,19.479 23.658,0.017 18.164,0.008 			"/>
			<polygon style="fill:#DB6A4D;" points="9.073,19.479 14.188,19.479 20.696,5.443 18.164,0.008 			"/>
			<polygon style="fill:#3F7AAE;" points="76.877,19.525 81.99,19.525 73.398,0.063 67.904,0.053 			"/>
			<polygon style="fill:#DB6A4D;" points="58.814,19.525 63.928,19.525 70.438,5.49 67.904,0.053 			"/>
			<path style="fill:#3F7AAE;" d="M34.242,0c-1.024,0-1.996,0.203-2.889,0.564c2.793,1.139,4.762,3.879,4.762,7.08
				c0,3.203-1.969,5.943-4.762,7.082c0.893,0.363,1.864,0.566,2.889,0.566c4.22,0,7.645-3.424,7.645-7.648
				C41.887,3.422,38.462,0,34.242,0z"/>
			<rect x="32.25" style="fill:#3F7AAE;" width="1.955" height="0.691"/>
			<rect x="27.137" style="fill:#5FA4C2;" width="5.113" height="19.484"/>
		</g>
		<g>
			<rect x="53.906" y="4.636" style="fill:#316088;" width="5.114" height="14.89"/>
			<polygon style="fill:#3F7AAE;" points="56.375,0.053 51.256,0.047 48.822,5.249 56.375,5.249 62.861,5.249 65.289,0.047 			"/>
		</g>
	</g>
</g>
</svg>
