<?xml version="1.0" encoding="iso-8859-1"?>
<!-- Generator: Adobe Illustrator 16.0.0, SVG Export Plug-In . SVG Version: 6.00 Build 0)  -->
<!DOCTYPE svg PUBLIC "-//W3C//DTD SVG 1.1//EN" "http://www.w3.org/Graphics/SVG/1.1/DTD/svg11.dtd">
<svg version="1.1" id="&#x5716;&#x5C64;_1" xmlns="http://www.w3.org/2000/svg" xmlns:xlink="http://www.w3.org/1999/xlink" x="0px"
	 y="0px" width="24.918px" height="22.018px" viewBox="0 0 24.918 22.018" style="enable-background:new 0 0 24.918 22.018;"
	 xml:space="preserve">
<g>
	<rect x="0.666" y="2.549" style="opacity:0.8;fill:#2D72A8;" width="24.252" height="19.469"/>
	<path style="fill:#DB6A4D;" d="M0,22.024l10.982-0.012c0,0-14.208-9.658,1.67-19.464H0V22.024z"/>
	<path style="fill:#FFFFFF;" d="M24.918,17.425c-0.277,0.019-0.475,0.031-0.756,0.041C15.92,17.78,9.055,14.187,8.828,9.44
		c-0.131-2.695,1.912-5.183,5.207-6.889l-1.358-0.003C7.92,4.665,4.754,8.397,4.736,12.664c-0.014,3.767,2.43,7.14,6.266,9.36
		l13.916-0.007V17.425z"/>
	<polygon style="fill:#9F9E9F;stroke:#FFFFFF;stroke-width:0.1;stroke-miterlimit:10;" points="12.102,0.792 13.734,1.628 
		16.305,1.081 14.307,2.281 13.896,3.823 15.107,2.937 16.551,3.898 18.143,0.083 	"/>
</g>
</svg>
