<?xml version="1.0" encoding="iso-8859-1"?>
<!-- Generator: Adobe Illustrator 16.0.0, SVG Export Plug-In . SVG Version: 6.00 Build 0)  -->
<!DOCTYPE svg PUBLIC "-//W3C//DTD SVG 1.1//EN" "http://www.w3.org/Graphics/SVG/1.1/DTD/svg11.dtd">
<svg version="1.1" id="&#x5716;&#x5C64;_1" xmlns="http://www.w3.org/2000/svg" xmlns:xlink="http://www.w3.org/1999/xlink" x="0px"
	 y="0px" width="202.093px" height="270.648px" viewBox="0 0 202.093 270.648" style="enable-background:new 0 0 202.093 270.648;"
	 xml:space="preserve">
<g>
	<g>
		<g>
			<g>
				<polygon style="fill:#040000;" points="156.313,264.405 149.957,264.6 149.682,255.491 156.037,255.295 				"/>
				<path style="fill:#040000;" d="M158.147,265.516c0.083,2.752-2.08,5.051-4.828,5.129c-2.75,0.084-5.044-2.076-5.128-4.828
					c-0.083-2.748,2.079-5.043,4.827-5.127C155.768,260.608,158.063,262.766,158.147,265.516z"/>
			</g>
			<g>
				
					<rect x="174.602" y="254.647" transform="matrix(0.9995 -0.0301 0.0301 0.9995 -7.7222 5.4692)" style="fill:#040000;" width="6.358" height="9.112"/>
				<path style="fill:#040000;" d="M182.932,264.77c0.082,2.752-2.078,5.047-4.827,5.127c-2.751,0.086-5.046-2.074-5.13-4.826
					c-0.081-2.752,2.08-5.045,4.829-5.127S182.848,262.022,182.932,264.77z"/>
			</g>
		</g>
		<g>
			<path style="fill:#4B708D;" d="M183.835,259.504l-37.686,1.135c-3.459,0.105-6.534-2.178-7.436-5.52l-14.651-54.338
				c-1.256-4.654,2.166-9.262,6.986-9.41l37.688-1.135c3.456-0.102,6.535,2.184,7.434,5.525l14.65,54.332
				C192.077,254.752,188.656,259.36,183.835,259.504z"/>
			<path style="fill:#C59D62;" d="M201.831,238.403l-14.648-54.339c-0.901-3.341-3.979-5.624-7.436-5.52l-37.687,1.137
				c-2.49,0.072-4.605,1.34-5.896,3.188l-10.54,11.343l11.604,2.867l12.496,46.348c0.9,3.338,3.977,5.625,7.435,5.521l29.054-0.879
				c0.968,3.387,2.646,9,2.646,9l10.275-10.766C201.444,244.54,202.662,241.483,201.831,238.403z"/>
			<path style="fill:#AE8047;" d="M183.835,259.504l-37.686,1.135c-3.459,0.105-6.534-2.178-7.436-5.52l-14.651-54.338
				c-1.256-4.654,2.166-9.262,6.986-9.41l37.688-1.135c3.456-0.102,6.535,2.184,7.434,5.525l14.65,54.332
				C192.077,254.752,188.656,259.36,183.835,259.504z"/>
		</g>
		<g>
			<polygon style="fill:#B4BFC1;" points="142.859,202.467 139.859,202.557 116.793,135.387 119.793,135.299 			"/>
			<polygon style="fill:#B4BFC1;" points="163.166,201.858 160.164,201.946 137.098,134.776 140.101,134.687 			"/>
			<path style="fill:#040000;" d="M140.844,136.641l-24.461,0.737c-1.039,0.03-1.908-0.784-1.939-1.822l-0.01-0.388
				c-0.031-1.038,0.785-1.904,1.824-1.938l24.461-0.737c1.039-0.031,1.905,0.786,1.938,1.824l0.01,0.385
				C142.698,135.742,141.883,136.61,140.844,136.641z"/>
			<path style="fill:#796A56;" d="M162.984,203.147l-24.461,0.734c-1.038,0.033-1.905-0.783-1.937-1.822l-0.011-0.387
				c-0.032-1.037,0.784-1.904,1.822-1.936l24.461-0.738c1.039-0.029,1.906,0.787,1.938,1.826l0.011,0.387
				C164.841,202.247,164.023,203.118,162.984,203.147z"/>
		</g>
	</g>
	<polygon style="fill:#F7C7B2;" points="37.109,163.447 41.149,253.545 52.106,253.655 58.472,163.447 	"/>
	<g>
		<path style="fill:#AE8047;" d="M41.149,253.545l-6.196,6.207l-4.859,1.42c-2.234,0.654-3.887,3.426-4.059,6.813l-0.082,1.584
			l26.287,0.16l-0.134-16.074L41.149,253.545z"/>
		<polyline style="fill:#040000;" points="52.35,269.993 25.85,269.829 25.82,266.346 52.32,266.514 52.35,269.993 		"/>
	</g>
	<polygon style="fill:#DA927E;" points="57.689,174.528 57.551,176.479 37.732,177.335 37.607,174.528 	"/>
	<path style="fill:#F6D57F;" d="M52.106,253.655l1.568-20.643c0,0-6.759,1.838-13.517,0l0.991,20.533L52.106,253.655z"/>
	<path style="fill:#F7C7B2;" d="M61.021,162.342l1.847,29.047c0,0,0.237,11.75,7.963,23.092
		c6.489,9.529,22.731,34.053,22.731,34.053l9.128-6.057l-20.418-45.404l1.698-36.714L61.021,162.342z"/>
	<g>
		<path style="fill:#AE8047;" d="M93.563,248.534l-1.646,8.613l-3.227,3.9c-1.482,1.797-1.295,5.02,0.463,7.92l0.821,1.354
			l21.851-14.615l-9.134-13.229L93.563,248.534z"/>
		<polyline style="fill:#040000;" points="112.061,255.862 90.034,270.592 88.056,267.729 110.082,252.993 112.061,255.862 		"/>
	</g>
	<path style="fill:#DA927E;" d="M83.229,176.357c-0.006,0.16-21.253,0.978-21.253,0.978l-0.179-2.807h21.519L83.229,176.357z"/>
	<path style="fill:#F6D57F;" d="M93.563,248.534l-11.705-17.621c0,0,11.565,0.246,11.705-8.732l9.128,20.297L93.563,248.534z"/>
	<path style="fill:#DB6A4D;" d="M77.555,105.294c0,0,9.191,4.137,13.721,26.238c4.531,22.099,4.153,42.996,4.153,42.996H22.184
		c0,0,12.705-48.904,22.355-67.936L77.555,105.294z"/>
	<path style="fill:#F7C7B2;" d="M14.18,76.407l14.375,22.08l3.281-8.95l6.373-17.843c0.207-0.46,0.423-0.871,0.637-1.293
		l0.041-0.108l0.012,0.004c4.967-9.658,11.204-8.66,11.204-8.66l-0.68,12.527l6.46,2.372l-7.312,13.296l-0.009,0.188l-0.092-0.003
		l-12.564,22.851c-3.115,6.158-10.793,5.241-14.198-0.762L3.348,80.295L14.18,76.407z"/>
	<path style="fill:#B81C25;" d="M13.07,77.502l8.07-3.635c1.609-0.725,2.327-2.62,1.603-4.229L14.18,50.64
		c-0.723-1.609-2.618-2.327-4.227-1.603l-8.07,3.637c-1.607,0.726-2.324,2.618-1.602,4.229L8.842,75.9
		C9.568,77.51,11.461,78.229,13.07,77.502z"/>
	<path style="fill:#F7C7B2;" d="M0.432,76.735c1.111,4.784,5.891,7.757,10.674,6.646c4.781-1.112,7.756-5.892,6.643-10.676
		c-1.113-4.78-5.891-7.756-10.672-6.642C2.294,67.176-0.681,71.955,0.432,76.735z"/>
	<g>
		<path style="fill:#E99415;" d="M72.708,60.737l13.669,0.589c3.803,0.166,6.334,4.004,4.982,7.563l-13.805,36.405l-33.016,1.299
			l-0.02-19.977c0,0-6.588-5.763,1.617-15.943l3.34-8.089c0.461-1.118,1.553-1.847,2.76-1.847H72.708z"/>
		
			<line style="fill:none;stroke:#DFBA60;stroke-width:0.7402;stroke-miterlimit:10;" x1="78.854" y1="101.005" x2="44.52" y2="102.211"/>
	</g>
	<circle style="fill:#F7C7B2;" cx="127.313" cy="133.21" r="8.889"/>
	<path style="fill:#F7C7B2;" d="M80.192,65.264c3.892-4.573,11.083-4.119,14.37,0.904l21.345,29.73
		c0.413,0.577,0.761,1.198,1.038,1.852l15.307,36.414H122.01l-17.422-34.053L80.191,76.914
		C77.335,73.557,77.335,68.621,80.192,65.264z"/>
	<g>
		<g>
			<circle style="fill:#AE8047;" cx="80.797" cy="12.105" r="12.106"/>
			<path style="fill:#AE8047;" d="M79.716,24.16h1.766c0,0-1.774-8.949-10.663-10.662L79.716,24.16z"/>
		</g>
		<g>
			<g>
				<path style="fill:#F7C7B2;" d="M72.708,60.737V46.445H59.354v14.292c0,3.687,2.989,5.093,6.675,5.093l0,0
					C69.717,65.83,72.708,64.424,72.708,60.737z"/>
			</g>
			<path style="fill:#F7C7B2;" d="M73.199,43.195c0,0-1.477,15.945-13.845,14.979l0.012-7.988L73.199,43.195z"/>
		</g>
		<circle style="fill:#D9907D;" cx="47.033" cy="38.037" r="4.91"/>
		<circle style="fill:#AE8047;" cx="61.914" cy="29.967" r="18.721"/>
		<g>
			<g>
				<g>
					<path style="fill:#F7C7B2;" d="M60.291,55.477l0.575,0.009c8.505,0.132,15.506-6.66,15.636-15.165l0.287-16.387
						c0.035-2.2-1.723-4.012-3.924-4.047l-19.18-2.85c-3.933-0.061-8.261,5.619-8.322,9.551L45.127,39.84
						C44.996,48.346,51.785,55.348,60.291,55.477z"/>
				</g>
			</g>
		</g>
		<path style="fill:#AE8047;" d="M69.064,15.07c-1.711-0.275-3.309-0.364-4.802-0.316l0.202-0.089
			C39.21,12.621,45.123,30.591,45.123,30.591c2.639-1.313,4.111-2.845,4.939-4.308c2.736,2.666,8.502,6.363,19.652,6.938
			c0.842,2.971,2.703,6.148,6.787,7.1l1.127-7.191h-0.002h0.002C77.629,33.129,83.634,17.412,69.064,15.07z"/>
		<g>
			<circle style="fill:#161E21;" cx="59.316" cy="39.75" r="1.055"/>
			<path style="fill:#161E21;" d="M48.132,39.747c0.042,0.581,0.546,1.019,1.126,0.977c0.584-0.042,1.02-0.546,0.979-1.128
				c-0.042-0.58-0.547-1.02-1.129-0.977C48.527,38.662,48.09,39.166,48.132,39.747z"/>
			
				<path style="fill:none;stroke:#D68E7D;stroke-width:0.5245;stroke-linecap:round;stroke-linejoin:round;stroke-miterlimit:10;" d="
				M52.236,40.727l-0.233,3.626c0,0,0.177,1.595,2.451,0.981"/>
			<path style="fill:#161E21;" d="M62.156,36.665c-0.064,0.013-0.129,0.016-0.197,0.015l-4.773-0.203
				c-0.533-0.023-0.945-0.473-0.926-1.007c0.023-0.532,0.472-0.944,1.009-0.925l4.772,0.202c0.533,0.022,0.944,0.474,0.924,1.007
				C62.947,36.221,62.598,36.596,62.156,36.665z"/>
			<path style="fill:#161E21;" d="M50.176,36.41c-0.063,0.01-0.127,0.012-0.195,0.01l-2.919-0.121
				c-0.532-0.023-0.944-0.473-0.924-1.007c0.022-0.533,0.474-0.946,1.005-0.923l2.92,0.121c0.533,0.023,0.947,0.473,0.925,1.006
				C50.967,35.963,50.622,36.337,50.176,36.41z"/>
			<path style="fill:none;stroke:#D68E7D;stroke-width:0.75;stroke-linecap:round;stroke-linejoin:round;stroke-miterlimit:10;" d="
				M58.891,48.756c0,0-3.219-3.048-8.082,0"/>
		</g>
		<circle style="fill:#F7C7B2;" cx="77.553" cy="38.037" r="4.909"/>
	</g>
</g>
</svg>
