<?xml version="1.0" encoding="iso-8859-1"?>
<!-- Generator: Adobe Illustrator 16.0.0, SVG Export Plug-In . SVG Version: 6.00 Build 0)  -->
<!DOCTYPE svg PUBLIC "-//W3C//DTD SVG 1.1//EN" "http://www.w3.org/Graphics/SVG/1.1/DTD/svg11.dtd">
<svg version="1.1" id="&#x5716;&#x5C64;_1" xmlns="http://www.w3.org/2000/svg" xmlns:xlink="http://www.w3.org/1999/xlink" x="0px"
	 y="0px" width="40.351px" height="40.352px" viewBox="0 0 40.351 40.352" style="enable-background:new 0 0 40.351 40.352;"
	 xml:space="preserve">
<g>
	<circle style="fill:#DDDDDD;stroke:#B5B5B6;stroke-miterlimit:10;" cx="20.175" cy="20.176" r="19.675"/>
	<g>
		<path style="fill:#8A8A8A;stroke:#B5B5B6;stroke-miterlimit:10;" d="M16.751,14.515h-4.365c-0.022-2.139,0.711-3.906,2.199-5.304
			c1.488-1.396,3.449-2.096,5.883-2.096c1.567,0,2.9,0.289,4,0.866c1.101,0.578,1.981,1.411,2.643,2.5s0.991,2.233,0.991,3.434
			c0,0.655-0.105,1.3-0.316,1.934c-0.211,0.633-0.545,1.283-1,1.95c-0.267,0.389-0.906,1.044-1.917,1.967
			c-0.967,0.877-1.572,1.497-1.816,1.857c-0.245,0.361-0.45,0.842-0.617,1.442c-0.166,0.6-0.271,1.433-0.316,2.5h-4.517l-0.017-0.75
			c0-1.489,0.271-2.842,0.816-4.059s1.428-2.358,2.65-3.425c1.178-1.033,1.889-1.745,2.133-2.134
			c0.245-0.389,0.367-0.845,0.367-1.366c0-0.711-0.298-1.314-0.892-1.809c-0.595-0.494-1.392-0.742-2.392-0.742
			c-1.022,0-1.861,0.303-2.518,0.904C17.096,12.789,16.763,13.565,16.751,14.515z M19.935,27.465c0.812,0,1.503,0.278,2.075,0.834
			s0.858,1.228,0.858,2.016c0,0.789-0.283,1.465-0.85,2.025c-0.567,0.561-1.25,0.842-2.051,0.842c-0.8,0-1.48-0.281-2.041-0.842
			c-0.562-0.561-0.842-1.236-0.842-2.025c0-0.789,0.277-1.46,0.833-2.016S19.146,27.465,19.935,27.465z"/>
	</g>
</g>
</svg>
