<?xml version="1.0" encoding="iso-8859-1"?>
<!-- Generator: Adobe Illustrator 16.0.0, SVG Export Plug-In . SVG Version: 6.00 Build 0)  -->
<!DOCTYPE svg PUBLIC "-//W3C//DTD SVG 1.1//EN" "http://www.w3.org/Graphics/SVG/1.1/DTD/svg11.dtd">
<svg version="1.1" id="&#x5716;&#x5C64;_1" xmlns="http://www.w3.org/2000/svg" xmlns:xlink="http://www.w3.org/1999/xlink" x="0px"
	 y="0px" width="246.441px" height="81.204px" viewBox="0 0 246.441 81.204" style="enable-background:new 0 0 246.441 81.204;"
	 xml:space="preserve">
<g>
	<g>
		<path style="fill:#DB6A4D;" d="M14.094,3.703l-3.24,2.859C9.717,4.979,8.559,4.188,7.379,4.188c-0.574,0-1.043,0.154-1.408,0.461
			C5.605,4.956,5.422,5.303,5.422,5.688c0,0.386,0.131,0.75,0.393,1.094C6.168,7.24,7.238,8.225,9.021,9.734
			c1.67,1.396,2.682,2.276,3.037,2.641c0.887,0.896,1.516,1.753,1.887,2.57c0.369,0.818,0.555,1.711,0.555,2.68
			c0,1.886-0.652,3.443-1.955,4.672c-1.303,1.229-3.004,1.844-5.1,1.844c-1.637,0-3.063-0.401-4.277-1.203s-2.256-2.063-3.121-3.781
			l3.678-2.219c1.105,2.031,2.379,3.047,3.818,3.047c0.752,0,1.383-0.219,1.895-0.656c0.51-0.438,0.766-0.942,0.766-1.516
			c0-0.521-0.193-1.041-0.578-1.563c-0.387-0.521-1.236-1.317-2.553-2.391c-2.504-2.041-4.121-3.617-4.852-4.727
			s-1.096-2.216-1.096-3.32c0-1.594,0.607-2.961,1.822-4.102S5.662,0,7.445,0c1.146,0,2.24,0.266,3.277,0.797
			S12.885,2.297,14.094,3.703z"/>
		<path style="fill:#DB6A4D;" d="M17.207,0.578H29.91v4.313h-4.188v18.672h-4.438V4.891h-4.078V0.578z"/>
		<path style="fill:#DB6A4D;" d="M40.721,0.578h4.438l8.84,22.984h-4.547l-1.799-4.734h-9.377l-1.871,4.734h-4.547L40.721,0.578z
			 M42.967,6.672l-3.084,7.891h6.15L42.967,6.672z"/>
		<path style="fill:#DB6A4D;" d="M58.479,0.578h4.635c2.539,0,4.348,0.227,5.424,0.68c1.078,0.453,1.943,1.206,2.6,2.258
			c0.654,1.053,0.982,2.297,0.982,3.734c0,1.511-0.361,2.773-1.086,3.789c-0.723,1.016-1.814,1.784-3.273,2.305l5.445,10.219h-4.783
			l-5.168-9.734h-0.4v9.734h-4.375V0.578z M62.854,9.563h1.371c1.391,0,2.35-0.183,2.873-0.549c0.525-0.365,0.787-0.972,0.787-1.818
			c0-0.502-0.129-0.938-0.389-1.309s-0.607-0.638-1.045-0.8c-0.436-0.162-1.234-0.243-2.398-0.243h-1.199V9.563z"/>
		<path style="fill:#DB6A4D;" d="M75.279,0.578h12.703v4.313h-4.188v18.672h-4.438V4.891h-4.078V0.578z"/>
		<path style="fill:#DB6A4D;" d="M101.52,0.578h4.438V9.25h7.672V0.578h4.422v22.984h-4.422V13.484h-7.672v10.078h-4.438V0.578z"/>
		<path style="fill:#DB6A4D;" d="M124.115,0.578h12.547v4.281h-8.203v4.156h8.203v4.203h-8.203v6.047h8.203v4.297h-12.547V0.578z"/>
		<path style="fill:#DB6A4D;" d="M141.838,0.578h4.635c2.539,0,4.348,0.227,5.424,0.68c1.078,0.453,1.943,1.206,2.6,2.258
			c0.654,1.053,0.982,2.297,0.982,3.734c0,1.511-0.361,2.773-1.086,3.789c-0.723,1.016-1.814,1.784-3.273,2.305l5.445,10.219h-4.783
			l-5.168-9.734h-0.4v9.734h-4.375V0.578z M146.213,9.563h1.371c1.391,0,2.35-0.183,2.873-0.549
			c0.525-0.365,0.787-0.972,0.787-1.818c0-0.502-0.129-0.938-0.389-1.309s-0.607-0.638-1.045-0.8
			c-0.436-0.162-1.234-0.243-2.398-0.243h-1.199V9.563z"/>
		<path style="fill:#DB6A4D;" d="M160.92,0.578h12.547v4.281h-8.203v4.156h8.203v4.203h-8.203v6.047h8.203v4.297H160.92V0.578z"/>
		<path style="fill:#DB6A4D;" d="M180.203,19.109c0.678,0,1.256,0.237,1.734,0.711c0.479,0.475,0.719,1.05,0.719,1.727
			c0,0.678-0.24,1.256-0.719,1.734S180.881,24,180.203,24s-1.256-0.24-1.734-0.719s-0.719-1.057-0.719-1.734
			c0-0.677,0.24-1.252,0.719-1.727C178.947,19.347,179.525,19.109,180.203,19.109z"/>
		<path style="fill:#3F7AAE;" d="M22.25,37.729l-3.08,3.047c-1.949-2.063-4.223-3.094-6.818-3.094c-2.264,0-4.158,0.75-5.686,2.25
			c-1.527,1.5-2.291,3.323-2.291,5.469c0,2.219,0.793,4.098,2.377,5.641c1.586,1.541,3.541,2.311,5.867,2.311
			c1.512,0,2.787-0.316,3.824-0.951c1.037-0.637,1.873-1.631,2.51-2.984h-6.656v-4.109h11.563l0.031,0.969
			c0,2.01-0.521,3.916-1.563,5.719c-1.041,1.801-2.391,3.176-4.047,4.123c-1.656,0.949-3.6,1.422-5.828,1.422
			c-2.385,0-4.514-0.518-6.383-1.555c-1.869-1.035-3.35-2.512-4.438-4.428C0.545,49.639,0,47.573,0,45.354
			c0-3.043,1.006-5.688,3.016-7.938C5.4,34.738,8.506,33.4,12.328,33.4c2,0,3.869,0.369,5.609,1.109
			C19.406,35.135,20.844,36.207,22.25,37.729z"/>
		<path style="fill:#3F7AAE;" d="M39.559,33.4c3.252,0,6.047,1.177,8.389,3.531c2.34,2.354,3.51,5.223,3.51,8.61
			c0,3.354-1.154,6.191-3.463,8.514c-2.311,2.324-5.111,3.484-8.404,3.484c-3.451,0-6.316-1.191-8.6-3.578
			c-2.283-2.385-3.424-5.217-3.424-8.498c0-2.199,0.531-4.219,1.594-6.063c1.064-1.844,2.525-3.305,4.387-4.383
			C35.406,33.939,37.41,33.4,39.559,33.4z M39.512,37.682c-2.127,0-3.916,0.739-5.365,2.219c-1.449,1.479-2.174,3.36-2.174,5.641
			c0,2.541,0.912,4.551,2.736,6.031c1.418,1.154,3.045,1.732,4.881,1.732c2.074,0,3.842-0.75,5.303-2.248
			c1.459-1.5,2.189-3.35,2.189-5.547c0-2.188-0.736-4.039-2.205-5.555C43.406,38.439,41.617,37.682,39.512,37.682z"/>
		<path style="fill:#3F7AAE;" d="M73.146,33.979h4.438l8.84,22.983h-4.547l-1.799-4.732h-9.377l-1.871,4.732h-4.547L73.146,33.979z
			 M75.393,40.072l-3.084,7.891h6.15L75.393,40.072z"/>
		<path style="fill:#3F7AAE;" d="M90.623,33.979h4.197l9.834,15.125V33.979h4.375v22.983h-4.209l-9.822-15.076v15.076h-4.375V33.979
			z"/>
		<path style="fill:#3F7AAE;" d="M113.445,33.979h4.697l4.287,8.268l4.27-8.268h4.637l-6.727,13.032v9.951h-4.406V47.01
			L113.445,33.979z"/>
		<path style="fill:#3F7AAE;" d="M133.98,33.979h4.303l3.322,14.672l4.104-14.672h3.639l4.164,14.672l3.289-14.672h4.305
			l-5.18,22.983h-4.195l-4.234-14.857l-4.156,14.857h-4.156L133.98,33.979z"/>
		<path style="fill:#3F7AAE;" d="M165.303,33.979h4.438v8.672h7.672v-8.672h4.422v22.983h-4.422V46.885h-7.672v10.076h-4.438V33.979
			z"/>
		<path style="fill:#3F7AAE;" d="M187.9,33.979h12.547v4.281h-8.203v4.157h8.203v4.203h-8.203v6.045h8.203v4.297H187.9V33.979z"/>
		<path style="fill:#3F7AAE;" d="M205.623,33.979h4.635c2.539,0,4.346,0.227,5.424,0.68c1.076,0.453,1.943,1.205,2.598,2.258
			c0.656,1.052,0.984,2.297,0.984,3.734c0,1.51-0.363,2.774-1.086,3.79c-0.725,1.016-1.814,1.783-3.273,2.305l5.445,10.217h-4.783
			l-5.168-9.732h-0.4v9.732h-4.375V33.979z M209.998,42.963h1.371c1.391,0,2.35-0.184,2.873-0.549
			c0.525-0.365,0.787-0.973,0.787-1.819c0-0.502-0.131-0.938-0.391-1.309s-0.607-0.639-1.043-0.801s-1.236-0.242-2.398-0.242h-1.199
			V42.963z"/>
		<path style="fill:#3F7AAE;" d="M224.703,33.979h12.547v4.281h-8.203v4.157h8.203v4.203h-8.203v6.045h8.203v4.297h-12.547V33.979z"
			/>
		<path style="fill:#3F7AAE;" d="M243.988,52.51c0.676,0,1.254,0.236,1.734,0.709c0.479,0.475,0.719,1.051,0.719,1.727
			c0,0.678-0.24,1.256-0.719,1.734c-0.48,0.48-1.059,0.719-1.734,0.719c-0.678,0-1.256-0.238-1.734-0.719
			c-0.48-0.479-0.719-1.057-0.719-1.734c0-0.676,0.238-1.252,0.719-1.727C242.732,52.747,243.311,52.51,243.988,52.51z"/>
	</g>
	<g>
		<path style="fill:#595758;" d="M2.801,70.088h0.861v3.615h4.389v-3.615h0.861v8.619H8.051v-4.16H3.662v4.16H2.801V70.088z"/>
		<path style="fill:#595758;" d="M17.143,76.592l0.691,0.363c-0.227,0.445-0.488,0.805-0.786,1.078
			c-0.297,0.273-0.631,0.48-1.003,0.623c-0.371,0.143-0.792,0.215-1.261,0.215c-1.04,0-1.854-0.342-2.439-1.023
			c-0.587-0.682-0.88-1.451-0.88-2.311c0-0.809,0.248-1.529,0.745-2.162c0.629-0.805,1.472-1.207,2.527-1.207
			c1.087,0,1.955,0.412,2.604,1.236c0.462,0.582,0.696,1.309,0.704,2.18h-5.736c0.016,0.74,0.252,1.348,0.71,1.82
			c0.457,0.473,1.022,0.711,1.695,0.711c0.324,0,0.641-0.057,0.947-0.17s0.568-0.264,0.783-0.449
			C16.659,77.309,16.893,77.008,17.143,76.592z M17.143,74.875c-0.109-0.438-0.269-0.787-0.479-1.049
			c-0.209-0.262-0.485-0.473-0.83-0.633c-0.344-0.16-0.706-0.24-1.085-0.24c-0.626,0-1.164,0.201-1.613,0.604
			c-0.329,0.293-0.577,0.732-0.745,1.318H17.143z"/>
		<path style="fill:#595758;" d="M20.351,69.872h0.82v8.836h-0.82V69.872z"/>
		<path style="fill:#595758;" d="M23.788,72.333h0.82v1.172c0.324-0.445,0.696-0.779,1.118-1.002
			c0.421-0.223,0.892-0.334,1.41-0.334c0.905,0,1.681,0.326,2.324,0.979s0.966,1.438,0.966,2.355c0,0.938-0.319,1.732-0.957,2.387
			s-1.408,0.982-2.31,0.982c-0.507,0-0.974-0.105-1.398-0.316c-0.426-0.211-0.81-0.525-1.153-0.943v3.428h-0.82V72.333z
			 M27.069,72.959c-0.709,0-1.307,0.248-1.792,0.742c-0.485,0.496-0.728,1.113-0.728,1.85c0,0.484,0.108,0.92,0.324,1.305
			c0.217,0.387,0.526,0.693,0.93,0.92s0.829,0.34,1.277,0.34c0.44,0,0.854-0.115,1.242-0.344s0.696-0.547,0.927-0.957
			c0.229-0.408,0.345-0.838,0.345-1.287c0-0.453-0.114-0.881-0.342-1.287c-0.229-0.406-0.535-0.721-0.921-0.945
			S27.525,72.959,27.069,72.959z"/>
		<path style="fill:#595758;" d="M36.398,72.333h0.867l2.19,4.908l2.128-4.908h0.873l-3.803,8.707h-0.866l1.227-2.816L36.398,72.333
			z"/>
		<path style="fill:#595758;" d="M47.436,72.168c0.982,0,1.796,0.355,2.441,1.066c0.587,0.648,0.881,1.416,0.881,2.303
			c0,0.891-0.311,1.668-0.931,2.334s-1.417,1-2.392,1c-0.979,0-1.777-0.334-2.397-1s-0.931-1.443-0.931-2.334
			c0-0.883,0.293-1.648,0.881-2.297C45.634,72.526,46.449,72.168,47.436,72.168z M47.433,72.971c-0.682,0-1.269,0.252-1.758,0.756
			c-0.49,0.504-0.735,1.113-0.735,1.828c0,0.461,0.111,0.891,0.335,1.289s0.525,0.705,0.905,0.922
			c0.381,0.217,0.798,0.326,1.253,0.326s0.872-0.109,1.253-0.326c0.38-0.217,0.682-0.523,0.905-0.922s0.335-0.828,0.335-1.289
			c0-0.715-0.246-1.324-0.738-1.828S48.11,72.971,47.433,72.971z"/>
		<path style="fill:#595758;" d="M53.069,72.333h0.82v2.977c0,0.727,0.039,1.227,0.117,1.5c0.117,0.391,0.342,0.699,0.672,0.926
			c0.331,0.227,0.725,0.34,1.183,0.34s0.846-0.111,1.165-0.332c0.318-0.221,0.539-0.51,0.66-0.869
			c0.082-0.246,0.123-0.768,0.123-1.564v-2.977h0.838v3.129c0,0.879-0.103,1.541-0.308,1.986s-0.514,0.793-0.926,1.045
			s-0.929,0.379-1.55,0.379s-1.14-0.127-1.556-0.379s-0.727-0.604-0.932-1.055s-0.308-1.129-0.308-2.035V72.333z"/>
		<path style="fill:#595758;" d="M65.592,69.872h0.82v3.604c0.332-0.438,0.697-0.766,1.096-0.982s0.83-0.324,1.295-0.324
			c0.477,0,0.899,0.121,1.269,0.363s0.642,0.566,0.817,0.975s0.264,1.049,0.264,1.92v3.281h-0.82v-3.041
			c0-0.734-0.029-1.225-0.088-1.471c-0.102-0.422-0.286-0.74-0.554-0.953s-0.618-0.318-1.052-0.318c-0.496,0-0.94,0.164-1.333,0.492
			s-0.651,0.734-0.776,1.219c-0.078,0.313-0.117,0.891-0.117,1.734v2.338h-0.82V69.872z"/>
		<path style="fill:#595758;" d="M80.162,72.333v6.375h-0.809v-1.096c-0.344,0.418-0.729,0.732-1.157,0.943
			s-0.896,0.316-1.403,0.316c-0.902,0-1.673-0.328-2.312-0.982s-0.958-1.449-0.958-2.387c0-0.918,0.322-1.703,0.967-2.355
			s1.42-0.979,2.326-0.979c0.523,0,0.997,0.111,1.421,0.334s0.796,0.557,1.116,1.002v-1.172H80.162z M76.884,72.959
			c-0.456,0-0.878,0.111-1.265,0.336c-0.386,0.225-0.693,0.539-0.921,0.945c-0.229,0.406-0.343,0.834-0.343,1.287
			c0,0.449,0.115,0.879,0.346,1.287c0.229,0.41,0.539,0.729,0.927,0.957c0.389,0.229,0.805,0.344,1.25,0.344
			c0.448,0,0.874-0.113,1.276-0.34c0.401-0.227,0.711-0.533,0.927-0.92c0.217-0.385,0.325-0.82,0.325-1.305
			c0-0.736-0.243-1.354-0.729-1.85C78.191,73.208,77.594,72.959,76.884,72.959z"/>
		<path style="fill:#595758;" d="M82.305,72.333h0.873l2.14,4.646l2.114-4.646h0.879l-2.918,6.375H85.24L82.305,72.333z"/>
		<path style="fill:#595758;" d="M95.825,76.592l0.691,0.363c-0.227,0.445-0.488,0.805-0.786,1.078
			c-0.297,0.273-0.631,0.48-1.003,0.623c-0.371,0.143-0.792,0.215-1.261,0.215c-1.04,0-1.854-0.342-2.439-1.023
			c-0.587-0.682-0.88-1.451-0.88-2.311c0-0.809,0.248-1.529,0.745-2.162c0.629-0.805,1.472-1.207,2.527-1.207
			c1.087,0,1.955,0.412,2.604,1.236c0.462,0.582,0.696,1.309,0.704,2.18h-5.736c0.016,0.74,0.252,1.348,0.71,1.82
			c0.457,0.473,1.022,0.711,1.695,0.711c0.324,0,0.641-0.057,0.947-0.17s0.568-0.264,0.783-0.449
			C95.342,77.309,95.575,77.008,95.825,76.592z M95.825,74.875c-0.109-0.438-0.269-0.787-0.479-1.049
			c-0.209-0.262-0.485-0.473-0.83-0.633c-0.344-0.16-0.706-0.24-1.085-0.24c-0.626,0-1.164,0.201-1.613,0.604
			c-0.329,0.293-0.577,0.732-0.745,1.318H95.825z"/>
		<path style="fill:#595758;" d="M109.73,72.333v6.375h-0.809v-1.096c-0.344,0.418-0.729,0.732-1.157,0.943
			s-0.896,0.316-1.403,0.316c-0.902,0-1.673-0.328-2.312-0.982s-0.958-1.449-0.958-2.387c0-0.918,0.322-1.703,0.967-2.355
			s1.42-0.979,2.326-0.979c0.523,0,0.997,0.111,1.421,0.334s0.796,0.557,1.116,1.002v-1.172H109.73z M106.452,72.959
			c-0.456,0-0.878,0.111-1.265,0.336c-0.386,0.225-0.693,0.539-0.921,0.945c-0.229,0.406-0.343,0.834-0.343,1.287
			c0,0.449,0.115,0.879,0.346,1.287c0.229,0.41,0.539,0.729,0.927,0.957c0.389,0.229,0.805,0.344,1.25,0.344
			c0.448,0,0.874-0.113,1.276-0.34c0.401-0.227,0.711-0.533,0.927-0.92c0.217-0.385,0.325-0.82,0.325-1.305
			c0-0.736-0.243-1.354-0.729-1.85C107.76,73.208,107.162,72.959,106.452,72.959z"/>
		<path style="fill:#595758;" d="M116.752,78.708v-8.836h0.82v3.557c0.344-0.422,0.728-0.738,1.153-0.947
			c0.425-0.209,0.892-0.313,1.398-0.313c0.901,0,1.672,0.326,2.31,0.98s0.957,1.449,0.957,2.383c0,0.922-0.322,1.709-0.966,2.361
			s-1.419,0.979-2.324,0.979c-0.519,0-0.989-0.111-1.41-0.334c-0.422-0.223-0.794-0.557-1.118-1.002v1.172H116.752z M120.033,78.081
			c0.456,0,0.877-0.113,1.263-0.338s0.692-0.539,0.921-0.945c0.228-0.406,0.342-0.836,0.342-1.289s-0.115-0.885-0.345-1.295
			c-0.23-0.41-0.539-0.73-0.927-0.959s-0.802-0.342-1.242-0.342c-0.448,0-0.874,0.113-1.277,0.342s-0.713,0.537-0.93,0.924
			c-0.216,0.387-0.324,0.822-0.324,1.307c0,0.738,0.242,1.355,0.728,1.852S119.324,78.081,120.033,78.081z"/>
		<path style="fill:#595758;" d="M131.151,76.592l0.691,0.363c-0.227,0.445-0.488,0.805-0.786,1.078
			c-0.297,0.273-0.631,0.48-1.003,0.623c-0.371,0.143-0.792,0.215-1.261,0.215c-1.04,0-1.854-0.342-2.439-1.023
			c-0.587-0.682-0.88-1.451-0.88-2.311c0-0.809,0.248-1.529,0.745-2.162c0.629-0.805,1.472-1.207,2.527-1.207
			c1.087,0,1.955,0.412,2.604,1.236c0.462,0.582,0.696,1.309,0.704,2.18h-5.736c0.016,0.74,0.252,1.348,0.71,1.82
			c0.457,0.473,1.022,0.711,1.695,0.711c0.324,0,0.641-0.057,0.947-0.17s0.568-0.264,0.783-0.449
			C130.668,77.309,130.901,77.008,131.151,76.592z M131.151,74.875c-0.109-0.438-0.269-0.787-0.479-1.049
			c-0.209-0.262-0.485-0.473-0.83-0.633c-0.344-0.16-0.706-0.24-1.085-0.24c-0.626,0-1.164,0.201-1.613,0.604
			c-0.329,0.293-0.577,0.732-0.745,1.318H131.151z"/>
		<path style="fill:#595758;" d="M135.198,69.965h0.82v2.367h1.301v0.709h-1.301v5.666h-0.82v-5.666h-1.119v-0.709h1.119V69.965z"/>
		<path style="fill:#595758;" d="M140.164,69.965h0.82v2.367h1.301v0.709h-1.301v5.666h-0.82v-5.666h-1.119v-0.709h1.119V69.965z"/>
		<path style="fill:#595758;" d="M149.783,76.592l0.691,0.363c-0.227,0.445-0.488,0.805-0.786,1.078
			c-0.297,0.273-0.631,0.48-1.003,0.623c-0.371,0.143-0.792,0.215-1.261,0.215c-1.04,0-1.854-0.342-2.439-1.023
			c-0.587-0.682-0.88-1.451-0.88-2.311c0-0.809,0.248-1.529,0.745-2.162c0.629-0.805,1.472-1.207,2.527-1.207
			c1.087,0,1.955,0.412,2.604,1.236c0.462,0.582,0.696,1.309,0.704,2.18h-5.736c0.016,0.74,0.252,1.348,0.71,1.82
			c0.457,0.473,1.022,0.711,1.695,0.711c0.324,0,0.641-0.057,0.947-0.17s0.568-0.264,0.783-0.449
			C149.3,77.309,149.533,77.008,149.783,76.592z M149.783,74.875c-0.109-0.438-0.269-0.787-0.479-1.049
			c-0.209-0.262-0.485-0.473-0.83-0.633c-0.344-0.16-0.706-0.24-1.085-0.24c-0.626,0-1.164,0.201-1.613,0.604
			c-0.329,0.293-0.577,0.732-0.745,1.318H149.783z"/>
		<path style="fill:#595758;" d="M152.805,72.333h0.838v0.932c0.25-0.367,0.514-0.643,0.791-0.824s0.566-0.271,0.867-0.271
			c0.227,0,0.469,0.072,0.727,0.217l-0.428,0.691c-0.172-0.074-0.316-0.111-0.434-0.111c-0.273,0-0.537,0.111-0.791,0.336
			s-0.447,0.574-0.58,1.047c-0.102,0.363-0.152,1.098-0.152,2.203v2.156h-0.838V72.333z"/>
		<path style="fill:#595758;" d="M161.747,72.333h0.832v7.336c0,0.535-0.097,0.924-0.29,1.168s-0.458,0.367-0.794,0.367
			c-0.277,0-0.59-0.066-0.938-0.199v-0.738c0.219,0.113,0.416,0.17,0.592,0.17c0.223,0,0.389-0.092,0.498-0.275
			c0.066-0.117,0.1-0.361,0.1-0.732V72.333z M162.151,69.708c0.188,0,0.347,0.066,0.478,0.199s0.196,0.293,0.196,0.48
			c0,0.184-0.065,0.342-0.196,0.475s-0.29,0.199-0.478,0.199s-0.347-0.066-0.478-0.199s-0.196-0.291-0.196-0.475
			c0-0.188,0.065-0.348,0.196-0.48S161.964,69.708,162.151,69.708z"/>
		<path style="fill:#595758;" d="M168.201,72.168c0.982,0,1.796,0.355,2.441,1.066c0.587,0.648,0.881,1.416,0.881,2.303
			c0,0.891-0.311,1.668-0.931,2.334s-1.417,1-2.392,1c-0.979,0-1.777-0.334-2.397-1s-0.931-1.443-0.931-2.334
			c0-0.883,0.293-1.648,0.881-2.297C166.399,72.526,167.215,72.168,168.201,72.168z M168.198,72.971
			c-0.682,0-1.269,0.252-1.758,0.756c-0.49,0.504-0.735,1.113-0.735,1.828c0,0.461,0.111,0.891,0.335,1.289s0.525,0.705,0.905,0.922
			c0.381,0.217,0.798,0.326,1.253,0.326s0.872-0.109,1.253-0.326c0.38-0.217,0.682-0.523,0.905-0.922s0.335-0.828,0.335-1.289
			c0-0.715-0.246-1.324-0.738-1.828S168.876,72.971,168.198,72.971z"/>
		<path style="fill:#595758;" d="M173.836,72.333h0.82v2.977c0,0.727,0.039,1.227,0.117,1.5c0.117,0.391,0.342,0.699,0.672,0.926
			c0.331,0.227,0.725,0.34,1.183,0.34s0.846-0.111,1.165-0.332c0.318-0.221,0.539-0.51,0.66-0.869
			c0.082-0.246,0.123-0.768,0.123-1.564v-2.977h0.838v3.129c0,0.879-0.103,1.541-0.308,1.986s-0.514,0.793-0.926,1.045
			s-0.929,0.379-1.55,0.379s-1.14-0.127-1.556-0.379s-0.727-0.604-0.932-1.055s-0.308-1.129-0.308-2.035V72.333z"/>
		<path style="fill:#595758;" d="M181.826,72.333h0.838v0.932c0.25-0.367,0.514-0.643,0.791-0.824s0.566-0.271,0.867-0.271
			c0.227,0,0.469,0.072,0.727,0.217l-0.428,0.691c-0.172-0.074-0.316-0.111-0.434-0.111c-0.273,0-0.537,0.111-0.791,0.336
			s-0.447,0.574-0.58,1.047c-0.102,0.363-0.152,1.098-0.152,2.203v2.156h-0.838V72.333z"/>
		<path style="fill:#595758;" d="M186.646,72.333h0.82v1.143c0.328-0.438,0.691-0.766,1.09-0.982s0.832-0.324,1.301-0.324
			c0.477,0,0.899,0.121,1.269,0.363s0.642,0.568,0.817,0.979s0.264,1.049,0.264,1.916v3.281h-0.82v-3.041
			c0-0.734-0.03-1.225-0.091-1.471c-0.096-0.422-0.278-0.74-0.548-0.953s-0.621-0.318-1.055-0.318c-0.496,0-0.94,0.164-1.333,0.492
			s-0.651,0.734-0.776,1.219c-0.078,0.316-0.117,0.895-0.117,1.734v2.338h-0.82V72.333z"/>
		<path style="fill:#595758;" d="M200.231,76.592l0.691,0.363c-0.227,0.445-0.488,0.805-0.786,1.078
			c-0.297,0.273-0.631,0.48-1.003,0.623c-0.371,0.143-0.792,0.215-1.261,0.215c-1.04,0-1.854-0.342-2.439-1.023
			c-0.587-0.682-0.88-1.451-0.88-2.311c0-0.809,0.248-1.529,0.745-2.162c0.629-0.805,1.472-1.207,2.527-1.207
			c1.087,0,1.955,0.412,2.604,1.236c0.462,0.582,0.696,1.309,0.704,2.18h-5.736c0.016,0.74,0.252,1.348,0.71,1.82
			c0.457,0.473,1.022,0.711,1.695,0.711c0.324,0,0.641-0.057,0.947-0.17s0.568-0.264,0.783-0.449
			C199.748,77.309,199.981,77.008,200.231,76.592z M200.231,74.875c-0.109-0.438-0.269-0.787-0.479-1.049
			c-0.209-0.262-0.485-0.473-0.83-0.633c-0.344-0.16-0.706-0.24-1.085-0.24c-0.626,0-1.164,0.201-1.613,0.604
			c-0.329,0.293-0.577,0.732-0.745,1.318H200.231z"/>
		<path style="fill:#595758;" d="M202.877,72.333h0.867l2.19,4.908l2.128-4.908h0.873l-3.803,8.707h-0.866l1.227-2.816
			L202.877,72.333z"/>
		<path style="fill:#595758;" d="M215.975,77.418c0.199,0,0.369,0.07,0.51,0.211s0.211,0.313,0.211,0.516
			c0,0.199-0.07,0.369-0.211,0.512s-0.311,0.215-0.51,0.215s-0.369-0.072-0.51-0.215s-0.211-0.313-0.211-0.512
			c0-0.203,0.07-0.375,0.211-0.516S215.775,77.418,215.975,77.418z M216.391,69.872v6.68h-0.85v-6.68H216.391z"/>
	</g>
</g>
</svg>
