<?xml version="1.0" encoding="iso-8859-1"?>
<!-- Generator: Adobe Illustrator 16.0.0, SVG Export Plug-In . SVG Version: 6.00 Build 0)  -->
<!DOCTYPE svg PUBLIC "-//W3C//DTD SVG 1.1//EN" "http://www.w3.org/Graphics/SVG/1.1/DTD/svg11.dtd">
<svg version="1.1" id="&#x5716;&#x5C64;_1" xmlns="http://www.w3.org/2000/svg" xmlns:xlink="http://www.w3.org/1999/xlink" x="0px"
	 y="0px" width="16.084px" height="13.175px" viewBox="0 0 16.084 13.175" style="enable-background:new 0 0 16.084 13.175;"
	 xml:space="preserve">
<g>
	<path style="fill-rule:evenodd;clip-rule:evenodd;fill:#595758;" d="M0,11.726c1.2,0.077,2.365-0.099,3.459-0.593
		c0.494-0.218,0.94-0.482,1.388-0.836c-0.523-0.012-1-0.142-1.435-0.358C2.671,9.563,2.147,8.969,1.83,8.168
		c-0.07-0.177-0.07-0.177,0.124-0.165C2.482,8.057,2.871,8.044,3.17,7.928C2.882,7.827,2.612,7.773,2.389,7.627
		c-1.106-0.612-1.695-1.559-1.794-2.83C0.582,4.649,0.623,4.633,0.759,4.696c0.388,0.218,0.812,0.307,1.3,0.353
		C1.846,4.861,1.665,4.709,1.5,4.545c-0.918-0.988-1.135-2.554-0.524-3.76C1.059,0.619,1.089,0.619,1.2,0.75
		c1.547,1.783,3.471,2.859,5.788,3.229C7.223,4.027,7.483,4.027,7.724,4.08c0.165,0.023,0.183-0.053,0.16-0.178
		C7.642,2.51,8.294,1.127,9.53,0.433c1.258-0.735,2.895-0.507,3.905,0.482c0.119,0.099,0.23,0.124,0.365,0.088
		c0.624-0.141,1.205-0.37,1.753-0.688c0.046-0.011,0.082-0.035,0.141-0.088c-0.236,0.787-0.707,1.371-1.4,1.836
		c0.641-0.06,1.217-0.253,1.788-0.465c0.012,0.075-0.047,0.123-0.082,0.188c-0.389,0.529-0.842,0.999-1.376,1.405
		c-0.101,0.076-0.124,0.142-0.124,0.266c0.041,2.435-0.735,4.6-2.289,6.481c-1.458,1.712-3.323,2.753-5.542,3.106
		c-2.352,0.364-4.564-0.023-6.6-1.283C0.047,11.738,0.017,11.726,0,11.726z"/>
</g>
</svg>
