<?xml version="1.0" encoding="iso-8859-1"?>
<!-- Generator: Adobe Illustrator 16.0.0, SVG Export Plug-In . SVG Version: 6.00 Build 0)  -->
<!DOCTYPE svg PUBLIC "-//W3C//DTD SVG 1.1//EN" "http://www.w3.org/Graphics/SVG/1.1/DTD/svg11.dtd">
<svg version="1.1" id="&#x5716;&#x5C64;_1" xmlns="http://www.w3.org/2000/svg" xmlns:xlink="http://www.w3.org/1999/xlink" x="0px"
	 y="0px" width="19.042px" height="13.326px" viewBox="0 0 19.042 13.326" style="enable-background:new 0 0 19.042 13.326;"
	 xml:space="preserve">
<g>
	<path style="fill:#595758;" d="M16.455,13.182c0,0-5.2,0.145-6.933,0.145c-1.734,0-6.934-0.145-6.934-0.145
		c-1.344,0-2.443-1.1-2.443-2.443c0,0-0.145-3.055-0.145-4.074c0-1.021,0.145-4.076,0.145-4.076c0-1.344,1.099-2.443,2.443-2.443
		c0,0,5.2-0.145,6.934-0.145c1.733,0,6.933,0.145,6.933,0.145c1.344,0,2.442,1.1,2.442,2.443c0,0,0.146,3.053,0.146,4.076
		s-0.146,4.074-0.146,4.074C18.897,12.082,17.798,13.182,16.455,13.182z"/>
	<polygon style="fill-rule:evenodd;clip-rule:evenodd;fill:#FFFFFF;" points="7.697,9.641 7.697,3.688 12.508,6.664 	"/>
</g>
</svg>
